
<svg xmlns="http://www.w3.org/2000/svg" width="512" height="512" viewBox="0 0 512 512" version="1.1">
	<path d="M 231.500 35.795 L 214.500 44.500 214.212 53.184 L 213.924 61.867 220.712 65.815 C 224.445 67.987, 232.563 72.295, 238.750 75.390 L 250 81.017 250 89.912 L 250 98.807 226.558 87.154 L 203.116 75.500 203.308 70.500 C 203.489 65.785, 203.714 65.395, 207.250 63.668 C 209.313 62.660, 211 61.197, 211 60.418 C 211 59.638, 210.757 59, 210.460 59 C 209.270 59, 201.452 63.342, 200.765 64.384 C 200.361 64.998, 200.024 68.303, 200.015 71.730 C 200 77.922, 199.977 77.971, 196.250 79.841 C 194.188 80.876, 186.698 83.644, 179.606 85.992 C 167.537 89.988, 166.546 90.165, 164.106 88.749 C 162.673 87.916, 155.498 84.008, 148.162 80.062 L 134.825 72.888 129.030 75.904 C 125.843 77.563, 121.045 80.206, 118.368 81.778 L 113.500 84.636 113.218 96.306 L 112.937 107.976 117.007 112.392 L 121.077 116.807 116.016 120.086 C 111.275 123.159, 110.231 124.910, 112.659 125.720 C 113.227 125.909, 116.450 124.034, 119.821 121.553 L 125.949 117.042 135.117 121.504 C 141.861 124.786, 144.975 125.800, 146.893 125.337 C 148.327 124.991, 154.338 122.294, 160.250 119.345 L 171 113.983 171 105.192 C 171 95.529, 170.276 94, 165.701 94 C 163.378 94, 161.156 95.690, 154.528 102.500 C 149.978 107.175, 145.846 111, 145.347 111 C 144.847 111, 143.951 109.708, 143.355 108.129 C 142.383 105.556, 142.465 105.309, 144.138 105.746 C 145.226 106.031, 147.485 105.105, 149.559 103.523 C 154.936 99.421, 154.117 96.688, 146.042 91.788 C 140.628 88.503, 139.215 88.037, 137.304 88.908 C 136.050 89.479, 134.340 89.684, 133.504 89.363 C 131.712 88.676, 127.003 91.504, 126.994 93.273 C 126.990 93.948, 125.640 95.267, 123.994 96.203 C 120.442 98.225, 120.122 100.699, 123.250 101.947 C 124.487 102.441, 129.082 105.130, 133.459 107.922 C 137.837 110.715, 141.715 113, 142.077 113 C 142.748 113, 144.132 121.202, 143.558 121.775 C 143.386 121.948, 139.521 120.269, 134.969 118.044 C 130.417 115.820, 125.725 114, 124.543 114 C 123.360 114, 120.954 112.516, 119.196 110.702 C 116.015 107.420, 116 107.356, 116.002 96.952 L 116.005 86.500 125.343 81.551 L 134.682 76.602 142.591 80.833 C 146.941 83.159, 154.233 86.959, 158.795 89.276 L 167.090 93.490 181.795 88.495 C 190.130 85.664, 197.534 82.525, 198.886 81.250 C 200.199 80.013, 201.882 79, 202.628 79 C 203.373 79, 214.336 84.251, 226.991 90.668 L 250 102.336 250 106.163 L 250 109.989 231.891 119.055 L 213.781 128.120 214.163 134.872 L 214.544 141.623 209.022 143.258 C 202.151 145.292, 200.450 146.566, 198.597 151.063 C 196.364 156.484, 198.021 158.736, 208.006 163.852 C 212.678 166.246, 223.813 172.063, 232.750 176.780 L 249 185.355 249 191.690 L 249 198.024 234.750 204.999 C 212.410 215.934, 214 214.459, 214 224.246 L 214 232.521 228.622 240.310 C 236.665 244.594, 244.509 248.352, 246.054 248.661 C 248.850 249.220, 248.865 249.266, 249.182 258.114 C 249.357 263.004, 249.275 267, 249 266.994 C 248.725 266.988, 238.375 261.854, 226 255.585 C 205.720 245.312, 203.468 243.921, 203.174 241.489 C 202.961 239.735, 203.633 237.955, 205.094 236.400 C 208.335 232.950, 206.841 232.427, 200.779 234.887 L 195.486 237.035 185.619 234.975 C 180.193 233.841, 175.581 233.085, 175.372 233.295 C 175.162 233.504, 175.477 235.069, 176.070 236.771 C 176.993 239.418, 177.869 240.021, 182.124 240.933 C 184.860 241.520, 188.089 242.033, 189.299 242.074 C 190.521 242.115, 185.608 244.978, 178.251 248.512 L 165.003 254.876 153.913 246.938 C 147.814 242.572, 141.800 239, 140.549 239 C 139.297 239, 132.812 241.688, 126.137 244.973 L 114 250.946 113.850 263.473 C 113.767 270.363, 113.655 276.557, 113.600 277.238 C 113.545 277.919, 120.250 281.903, 128.500 286.092 L 143.500 293.708 144 298.604 C 144.413 302.649, 144.871 303.553, 146.635 303.804 C 147.980 303.996, 149.512 303.165, 150.779 301.554 C 151.884 300.149, 153.268 299, 153.855 299 C 154.442 299, 155.793 298.066, 156.857 296.923 L 158.791 294.847 159.498 299.987 C 159.919 303.047, 161.109 306.178, 162.439 307.724 L 164.673 310.321 161.586 313.093 C 159.195 315.242, 158.767 316.138, 159.688 317.072 C 160.613 318.009, 161.544 317.610, 163.879 315.275 C 165.989 313.165, 168.161 312.125, 171.190 311.773 C 176.773 311.126, 185.109 306.183, 186.920 302.448 C 187.737 300.763, 188.521 300.064, 188.767 300.801 C 189.095 301.784, 189.521 301.812, 190.594 300.922 C 191.753 299.960, 191.320 299.107, 188.075 295.957 C 184.055 292.056, 180.946 290, 179.066 290 C 177.071 290, 177.991 291.675, 180.652 292.887 C 183.762 294.305, 183.320 294.795, 176 298.049 C 172.975 299.394, 170.050 301.004, 169.500 301.627 C 168.950 302.250, 167.310 303.036, 165.856 303.372 C 162.946 304.046, 162.742 303.652, 161.486 294.935 L 160.828 290.370 166.414 286.153 C 171.680 282.177, 172 281.688, 172 277.621 C 172 275.249, 172.290 269.227, 172.644 264.241 L 173.287 255.174 184.394 250.070 C 190.502 247.263, 195.950 244.948, 196.500 244.927 C 197.050 244.905, 209.081 250.650, 223.236 257.694 L 248.973 270.500 248.924 276.500 L 248.875 282.500 231.437 290.958 L 214 299.417 214 308.539 L 214 317.661 231.999 326.581 L 249.998 335.500 249.999 344.195 L 250 352.889 245.250 350.870 C 242.638 349.760, 232.175 344.722, 222 339.676 L 203.500 330.500 203.204 325.432 C 202.918 320.539, 203.031 320.298, 206.454 318.455 C 208.404 317.405, 210 316.246, 210 315.880 C 210 314.103, 206.782 314.346, 203.815 316.346 C 200.593 318.517, 200.500 318.775, 200.500 325.540 L 200.500 332.500 216.500 340.716 C 225.300 345.235, 236.438 350.617, 241.250 352.676 L 250 356.420 249.949 367.460 L 249.897 378.500 231.949 387.240 L 214 395.979 214 403.375 C 214 410.160, 213.794 410.905, 211.500 412.408 C 208.333 414.483, 208.153 416.330, 211.250 414.966 C 213.144 414.132, 216.469 415.489, 232.250 423.536 L 251 433.097 250.912 436.798 C 250.864 438.834, 250.527 442.567, 250.162 445.093 L 249.500 449.685 227 438.593 C 205.358 427.923, 204.481 427.377, 204 424.277 C 203.601 421.704, 203.197 421.247, 202 422.012 C 201.002 422.649, 200.919 422.975, 201.750 422.985 C 202.438 422.993, 203 423.675, 203 424.500 C 203 425.325, 202.448 425.887, 201.774 425.750 C 199.789 425.345, 199.746 429.497, 201.694 433.598 C 203.380 437.147, 205.041 438.169, 226.667 448.950 L 249.833 460.500 249.917 470.225 C 250 479.916, 249.992 479.947, 247.750 479.078 C 246.513 478.598, 234.879 473.047, 221.897 466.742 L 198.294 455.280 197.776 441.692 C 197.491 434.219, 197.468 427.004, 197.725 425.658 C 198.022 424.103, 199.978 422.055, 203.096 420.035 C 205.793 418.287, 208 416.514, 208 416.095 C 208 414.018, 206.196 414.263, 201.347 417 L 196.029 420.001 139.264 391.727 C 108.044 376.177, 78.229 361.426, 73.008 358.949 C 67.490 356.329, 63.384 353.757, 63.201 352.804 C 62.964 351.574, 67.722 348.704, 82.192 341.348 C 92.812 335.949, 103.300 330.585, 105.500 329.428 L 109.500 327.325 109.500 319.265 C 109.500 309.607, 108.260 307.713, 100.451 305.443 L 95.253 303.932 95.747 299.554 C 96.223 295.326, 96.101 295.089, 92.165 292.604 C 89.923 291.189, 83.794 287.897, 78.544 285.290 C 73.295 282.682, 69.006 280.313, 69.014 280.024 C 69.022 279.736, 73.634 277.024, 79.264 273.998 L 89.500 268.496 89.500 256.536 C 89.500 244.787, 89.456 244.554, 87 243.297 C 85.625 242.593, 78.425 239.345, 71 236.081 C 61.309 231.819, 57.437 229.630, 57.276 228.322 C 57.097 226.872, 62.382 223.846, 83.155 213.500 C 99.201 205.509, 109.837 199.625, 110.758 198.230 C 113.238 194.473, 111.886 187.516, 107.863 183.329 C 104.091 179.404, 100.040 177, 97.196 177 C 95.530 177, 95.350 176.411, 95.746 172.250 L 96.198 167.500 84.849 161.585 C 67.724 152.659, 68.284 153.882, 78.879 148.561 C 83.895 146.041, 88 143.347, 88 142.573 C 88 141.799, 90.137 140.380, 92.750 139.421 C 102.110 135.983, 104 135.088, 104 134.093 C 104 132.967, 95.980 128, 94.162 128 C 91.735 128, 93.136 130.814, 96.195 132.081 L 99.390 133.404 95.445 135.176 C 88.845 138.140, 88.799 138.086, 89.130 127.750 L 89.427 118.500 85.839 116.801 C 75.959 112.123, 56.171 104.723, 53.724 104.791 C 51.339 104.857, 25.326 114.462, 21 116.874 C 19.840 117.520, 19.387 120.486, 19 129.942 L 18.500 142.174 28.034 147.069 C 43.130 154.819, 43.043 153.811, 29.151 159.933 L 17.100 165.245 16.800 169.873 C 16.541 173.870, 16.092 174.708, 13.500 176.025 C 11.850 176.865, 8.137 178.849, 5.250 180.434 L -0 183.318 -0 192.199 L -0 201.080 26.475 214.025 C 45.689 223.420, 52.801 227.355, 52.410 228.375 C 51.747 230.101, 39.670 235.693, 27.250 240.025 L 18 243.251 18 255.631 L 18 268.011 29.500 273.735 C 35.825 276.884, 41 279.741, 41 280.084 C 41 280.428, 35.600 283.577, 29 287.083 L 17 293.457 17 297.136 C 17 300.713, 16.762 300.949, 8.500 305.587 C 2.692 308.847, 0 310.935, 0 312.179 C 0 313.181, 0.175 314, 0.389 314 C 0.603 314, 3.858 312.200, 7.623 310 C 15.192 305.577, 17 305.145, 17 307.757 C 17 309.023, 22.034 312.120, 35 318.834 L 53 328.155 53 339.161 C 53 345.214, 52.662 350.017, 52.250 349.833 C 51.837 349.650, 40.159 343.916, 26.298 337.090 L 1.097 324.680 0.729 320.090 C 0.408 316.086, 0.337 316.291, 0.180 321.689 L 0 327.879 27.958 341.586 L 55.915 355.293 56.208 361.792 C 56.427 366.678, 56.934 368.564, 58.250 369.390 C 61.248 371.274, 63.457 368.957, 63.808 363.563 C 64.066 359.610, 64.395 358.931, 65.808 359.442 C 66.739 359.779, 95.934 374.104, 130.688 391.277 L 193.875 422.500 193.938 439.737 L 194 456.973 197.250 458.383 C 199.037 459.159, 211.169 465.015, 224.208 471.397 C 237.248 477.779, 248.885 483, 250.069 483 C 252.077 483, 281.532 469.736, 299.387 460.791 L 307.274 456.840 306.596 448.711 C 306.060 442.282, 305.404 439.907, 303.459 437.358 C 301.015 434.153, 300.152 430, 301.930 430 C 302.442 430, 303.005 428.996, 303.180 427.768 C 303.408 426.182, 305.526 424.412, 310.500 421.652 C 319.304 416.767, 429.205 361.847, 458 347.943 C 469.825 342.233, 484.450 335.073, 490.500 332.031 L 501.500 326.500 501.805 321.159 C 502.218 313.939, 500.463 311.596, 491.420 307.302 L 484 303.778 484 298.962 L 484 294.147 478.250 290.914 C 475.087 289.136, 469.406 285.900, 465.625 283.723 L 458.750 279.766 469.015 274.133 L 479.281 268.500 479.086 256.500 C 478.979 249.900, 478.510 244.116, 478.043 243.648 C 477.577 243.179, 470.289 239.992, 461.848 236.566 C 451.814 232.494, 446.391 229.773, 446.184 228.706 C 445.945 227.471, 452.282 223.870, 472.184 213.931 C 486.658 206.703, 499.288 200.092, 500.250 199.240 C 502.672 197.095, 502.486 195.861, 498.049 184.672 C 495.282 177.693, 494.586 175.011, 495.649 175.419 C 497.482 176.122, 500.533 174.566, 504.500 170.904 C 506.150 169.381, 508.538 167.315, 509.807 166.312 C 511.824 164.718, 512.076 163.755, 511.807 158.648 L 511.500 152.807 503.500 159.002 C 499.100 162.409, 494.275 166.583, 492.777 168.278 C 490.283 171.100, 489.905 171.230, 488.277 169.824 C 487.300 168.979, 481.775 165.666, 476 162.462 C 470.225 159.258, 464.213 155.860, 462.640 154.912 L 459.781 153.188 469.419 147.992 L 479.058 142.796 478.779 130.163 L 478.500 117.530 465 111.736 C 443.805 102.639, 446.925 102.781, 427.908 110.047 C 418.884 113.495, 410.952 116.738, 410.283 117.253 C 409.498 117.857, 408.965 121.931, 408.783 128.711 L 408.500 139.231 406 137.149 C 404.023 135.502, 403.853 135.060, 405.188 135.033 C 406.116 135.015, 406.880 134.213, 406.884 133.250 C 406.889 132.287, 407.204 130.212, 407.584 128.639 C 408.213 126.037, 408.079 125.840, 406.099 126.468 C 403.019 127.446, 394 121.605, 394 118.632 C 394 117.445, 392.446 114.165, 390.546 111.345 C 386.660 105.573, 385.306 101.547, 386.919 100.550 C 387.514 100.183, 388 97.275, 388 94.089 C 388 86.194, 385.525 82.801, 376.168 77.867 C 368.208 73.669, 363.310 73.002, 357.718 75.353 C 354.460 76.723, 346 84.495, 346 86.118 C 346 88.037, 343.754 86.744, 337.013 80.942 C 329.243 74.255, 321.126 70.820, 318.413 73.072 C 317.265 74.025, 315.717 73.601, 310.738 70.971 C 307.307 69.160, 303.477 66.676, 302.227 65.452 C 300.977 64.228, 297.517 62.163, 294.539 60.863 C 288.752 58.338, 288.036 57.190, 288.014 50.405 C 288.005 47.784, 287.368 45.738, 286.244 44.721 C 284.079 42.762, 251.516 26.983, 249.766 27.045 C 249.070 27.070, 240.850 31.007, 231.500 35.795 M 233.250 38.792 L 218 46.470 218 50.090 L 218 53.710 234.431 62.105 L 250.861 70.500 267.976 62.001 C 284.796 53.648, 285.085 53.451, 284.795 50.501 C 284.520 47.707, 283.397 46.934, 268.500 39.284 C 259.700 34.765, 251.600 31.078, 250.500 31.091 C 249.400 31.104, 241.637 34.570, 233.250 38.792 M 288 62.329 C 288 64.318, 285.661 65.790, 271 73.029 L 254 81.423 253.923 87.462 C 253.881 90.783, 253.701 94.254, 253.523 95.176 C 253.292 96.367, 259.821 93.536, 276.099 85.386 L 299 73.920 299 69.668 C 299 65.508, 298.881 65.358, 293.500 62.719 L 288 60.022 288 62.329 M 302 71.548 C 302 72.400, 303.462 73.732, 305.250 74.509 C 307.038 75.286, 307.825 75.932, 307 75.946 C 306.175 75.959, 304.839 75.551, 304.031 75.040 C 303.028 74.406, 302.076 74.611, 301.031 75.686 C 300.189 76.551, 289.150 82.489, 276.500 88.880 L 253.500 100.500 253.223 105.500 L 252.946 110.500 269.977 119.323 C 279.344 124.176, 287.456 128.984, 288.004 130.007 C 288.552 131.031, 289 135.419, 289 139.759 L 289 147.649 274.054 155.007 C 265.833 159.054, 259.265 162.620, 259.458 162.932 C 259.650 163.245, 258.697 163.567, 257.339 163.648 C 255.981 163.730, 254.730 163.955, 254.558 164.148 C 254.386 164.342, 254.041 168.192, 253.791 172.705 L 253.336 180.910 259.418 177.537 C 262.763 175.681, 270.113 171.727, 275.750 168.749 C 281.388 165.771, 285.677 163.010, 285.281 162.614 C 284.885 162.218, 285.222 162.137, 286.030 162.435 C 286.839 162.732, 289.704 161.676, 292.398 160.087 C 296.821 157.479, 297.305 156.837, 297.398 153.459 C 297.483 150.354, 296.948 149.298, 294.250 147.241 C 288.395 142.776, 290.553 141.430, 297.020 145.513 C 300.853 147.932, 301 148.223, 301 153.390 C 301 156.477, 300.469 159.184, 299.750 159.764 C 299.063 160.319, 291.300 164.512, 282.500 169.081 C 273.700 173.651, 263.575 179.045, 260 181.070 L 253.500 184.750 253.270 191.625 L 253.041 198.500 270.520 206.987 L 288 215.473 288 222.665 L 288 229.857 293.642 231.119 C 297.755 232.040, 300.652 233.550, 304.332 236.691 C 307.109 239.061, 309.715 241, 310.123 241 C 310.531 241, 311.151 241.900, 311.500 243 C 311.988 244.538, 313.013 245, 315.939 245 C 318.803 245, 321.587 246.204, 327.200 249.867 L 334.656 254.735 348.545 246.867 C 356.185 242.540, 363.521 239, 364.849 239 C 367.340 239, 383.885 247.951, 385.915 250.397 C 386.683 251.323, 386.966 256.320, 386.779 265.630 L 386.500 279.485 382.706 281.939 L 378.912 284.392 385.706 287.710 C 392.208 290.884, 395.163 291.282, 399.250 289.534 C 402.548 288.124, 401.133 291.730, 397 295.268 C 393.287 298.446, 393 299.064, 393 303.881 C 393 308.960, 393.048 309.044, 395.250 307.840 C 396.488 307.163, 399.300 306.360, 401.500 306.055 C 405.226 305.538, 405.520 305.261, 405.786 302 C 406.369 294.866, 407.462 293.709, 420.011 286.953 C 426.568 283.422, 431.611 280.243, 431.216 279.888 C 430.822 279.533, 425.938 276.903, 420.362 274.044 L 410.224 268.845 405.973 271.014 C 402.155 272.962, 401.279 273.058, 397.361 271.961 C 394.127 271.056, 393 270.238, 393 268.796 C 393 266.587, 403.275 255.365, 406.126 254.460 C 407.620 253.986, 408 252.878, 408 248.992 C 408 243.463, 408.037 243.427, 417 240.295 C 427.593 236.594, 442 229.735, 442 228.393 C 442 226.806, 436.283 223.560, 411.500 211.077 C 400.500 205.536, 390.938 200.241, 390.250 199.310 C 388.684 197.190, 388.618 188.581, 390.147 185.726 C 391.953 182.352, 395.076 180.174, 400.750 178.336 L 406 176.635 406 171.825 L 406 167.015 418.663 160.668 L 431.327 154.322 419.185 147.932 C 403.353 139.601, 398 135.714, 398 132.549 C 398 131.212, 398.450 129.840, 399 129.500 C 400.753 128.417, 400.097 127.423, 396.178 125.220 C 392.619 123.220, 392.242 123.186, 390.698 124.731 C 389.163 126.266, 388.786 126.269, 385.636 124.766 C 383.764 123.874, 380.588 121.699, 378.578 119.934 L 374.922 116.724 372.651 118.858 C 371.402 120.032, 368.269 121.711, 365.690 122.590 C 361.395 124.053, 361 124.461, 361 127.433 C 361 129.925, 361.581 130.944, 363.500 131.818 C 366.358 133.120, 366.902 137.006, 364.505 138.996 C 363.305 139.992, 362.563 139.944, 360.745 138.753 C 358.774 137.461, 358.201 137.454, 356.325 138.700 C 354.234 140.088, 354.134 139.963, 353.013 134.563 C 352.287 131.065, 351.181 128.632, 350.040 128.021 C 349.040 127.486, 346.567 124.744, 344.542 121.926 C 341.047 117.061, 340.687 116.836, 337.387 117.455 C 330.058 118.830, 330 118.705, 330 101.500 C 330 87.036, 330.117 86.098, 331.991 85.503 C 335.677 84.333, 337.508 87.504, 334.559 89.951 C 332.416 91.730, 333.683 93.733, 339.381 97.573 L 344.500 101.022 345.290 97.761 C 345.724 95.968, 346.174 94.013, 346.290 93.419 C 346.405 92.824, 343.029 89.569, 338.787 86.186 C 332.089 80.844, 330.675 80.115, 328.037 80.643 C 326.367 80.977, 325 81.859, 325 82.604 C 325 83.685, 325.503 83.728, 327.504 82.816 C 330.724 81.349, 331.814 82.443, 329.585 84.906 C 328.148 86.494, 326.495 86.818, 319.984 86.790 C 313.115 86.760, 311.847 86.467, 309.977 84.476 C 307.364 81.694, 307.683 77.956, 310.660 76.478 C 312.699 75.465, 312.551 75.253, 308.013 72.703 C 302.421 69.559, 302 69.478, 302 71.548 M 325 78 C 325 78.550, 325.423 79, 325.941 79 C 326.459 79, 327.160 78.550, 327.500 78 C 327.840 77.450, 327.416 77, 326.559 77 C 325.702 77, 325 77.450, 325 78 M 359.500 78.465 C 355.697 79.846, 348 86.826, 348 88.894 C 348 90.456, 351.969 91.270, 353.479 90.018 C 357.594 86.602, 364.362 89.767, 371.692 98.536 C 375.878 103.543, 377.103 103.845, 381.750 101.011 C 384.653 99.241, 385 98.541, 385 94.465 C 385 87.662, 383.036 84.821, 375.820 81.189 C 367.882 77.192, 364.539 76.634, 359.500 78.465 M 313.500 79 C 313.840 79.550, 315.216 80, 316.559 80 C 317.902 80, 319 79.550, 319 79 C 319 78.450, 317.623 78, 315.941 78 C 314.156 78, 313.139 78.417, 313.500 79 M 320.638 81.500 C 320.322 82.325, 320.499 83, 321.031 83 C 321.564 83, 322 82.325, 322 81.500 C 322 80.675, 321.823 80, 321.607 80 C 321.391 80, 320.955 80.675, 320.638 81.500 M 134.750 93.392 C 133.787 94.123, 133 94.984, 133 95.307 C 133 96.303, 143.618 103, 145.199 103 C 146.608 103, 150 100.009, 150 98.767 C 150 97.917, 139.242 91.995, 137.765 92.032 C 137.069 92.049, 135.713 92.661, 134.750 93.392 M 353 93.475 C 353 94.655, 353.527 94.750, 355.632 93.950 C 357.080 93.399, 359.161 93.234, 360.257 93.582 C 361.579 94.001, 362.020 93.841, 361.566 93.107 C 360.493 91.370, 353 91.692, 353 93.475 M 349 95.941 C 349 96.459, 349.450 97.160, 350 97.500 C 350.550 97.840, 351 97.416, 351 96.559 C 351 95.702, 350.550 95, 350 95 C 349.450 95, 349 95.423, 349 95.941 M 353.736 96.598 C 353.407 96.927, 353.373 97.810, 353.661 98.560 C 354.090 99.677, 354.641 99.626, 356.691 98.283 C 358.829 96.882, 359.511 96.838, 361.348 97.981 C 363.307 99.201, 363.377 99.173, 362.128 97.661 C 360.817 96.075, 354.996 95.337, 353.736 96.598 M 365.534 101.553 C 365.716 106.776, 365.434 107.720, 362.946 110.208 C 359.271 113.883, 354.297 114.010, 351.012 110.513 C 348.689 108.040, 334.707 98, 333.587 98 C 332.819 98, 332.852 109.848, 333.629 112.743 C 334.161 114.729, 334.676 114.916, 338.113 114.366 C 341.652 113.800, 342.290 114.066, 345.309 117.361 L 348.621 120.977 352.506 118.997 C 356.012 117.210, 356.592 117.163, 358.446 118.522 C 359.576 119.351, 361.047 120.289, 361.716 120.608 C 363.636 121.524, 371.355 116.746, 372.789 113.755 C 374.591 109.995, 372.821 103.867, 368.605 99.265 L 365.329 95.692 365.534 101.553 M 127.750 97.748 C 124.996 98.375, 125.664 99.262, 131.593 102.852 C 137.997 106.728, 139.634 106.324, 135.427 101.904 C 131.911 98.209, 130.079 97.218, 127.750 97.748 M 154.140 106.731 C 147.163 114.159, 145 117.117, 145 119.231 C 145 123.152, 146.688 122.833, 158.122 116.750 L 167.989 111.500 167.995 104.857 C 168 98.394, 167.302 97, 164.059 97 C 163.631 97, 159.168 101.379, 154.140 106.731 M 357 100 C 356.099 100.582, 355.975 100.975, 356.691 100.985 C 357.346 100.993, 358.160 100.550, 358.500 100 C 359.267 98.758, 358.921 98.758, 357 100 M 350.838 102.740 C 350.021 108.156, 356.310 112.031, 361 109 C 362.121 108.276, 361.583 108.027, 358.872 108.015 C 354.907 107.999, 353.268 106.620, 352.094 102.314 L 351.328 99.500 350.838 102.740 M 357.733 101.796 C 356.211 101.983, 355.225 102.555, 355.542 103.068 C 356.327 104.339, 359.729 104.247, 360.541 102.933 C 361.404 101.537, 361.041 101.390, 357.733 101.796 M 347 103 C 347 103.550, 347.675 104, 348.500 104 C 349.325 104, 350 103.550, 350 103 C 350 102.450, 349.325 102, 348.500 102 C 347.675 102, 347 102.450, 347 103 M 379.714 104.402 C 377.107 105.069, 376.095 105.805, 376.464 106.767 C 376.759 107.535, 377 109.466, 377 111.057 C 377 113.784, 377.187 113.914, 380.250 113.318 C 382.038 112.970, 383.813 112.206, 384.196 111.621 C 385.139 110.180, 386.389 113.543, 385.638 115.500 C 385.322 116.325, 384.149 117, 383.031 117 C 380.338 117, 380.466 117.626, 383.750 120.516 C 387.155 123.513, 388.476 123.587, 390.368 120.885 C 392.034 118.507, 391.646 116.842, 388.415 112.500 C 387.187 110.850, 385.578 108.135, 384.841 106.467 C 383.556 103.560, 383.342 103.474, 379.714 104.402 M 53 108 C 53 108.550, 54.237 108.968, 55.750 108.930 C 58.187 108.867, 58.272 108.762, 56.500 108 C 53.769 106.826, 53 106.826, 53 108 M 431 112.600 C 424.675 115.013, 419.050 117.161, 418.500 117.373 C 417.950 117.585, 423.125 120.509, 430 123.870 C 438.418 127.986, 442.631 129.576, 442.900 128.741 C 443.120 128.058, 443.795 127.152, 444.400 126.726 C 445.597 125.885, 440.878 121.441, 437.695 120.413 C 435.287 119.635, 435.811 118.581, 440 115.778 C 442.305 114.235, 443.608 112.508, 443.816 110.718 C 443.990 109.223, 443.765 108.048, 443.316 108.106 C 442.867 108.165, 437.325 110.187, 431 112.600 M 447 110.367 C 447 112.272, 447.852 113.384, 450.250 114.610 C 452.038 115.523, 453.849 116.866, 454.276 117.594 C 454.703 118.322, 455.716 118.662, 456.526 118.351 C 457.399 118.017, 458 118.366, 458 119.209 C 458 119.992, 455.300 121.923, 452 123.500 C 447.779 125.517, 446 126.931, 446 128.267 C 446 129.312, 446.400 130.017, 446.888 129.833 C 451.926 127.943, 471.771 118.438, 471.418 118.085 C 471.164 117.830, 466.128 115.666, 460.228 113.276 C 454.327 110.886, 448.938 108.673, 448.250 108.358 C 447.425 107.981, 447 108.664, 447 110.367 M 59.534 110.056 C 60.048 110.886, 59.296 111.043, 56.875 110.610 C 53.611 110.025, 53.631 110.057, 57.500 111.585 C 59.700 112.453, 61.950 113.252, 62.500 113.360 C 67.265 114.295, 67.088 118.557, 62.089 123.294 C 57.094 128.027, 53.110 128.264, 48.923 124.077 C 45.482 120.636, 45.293 118.802, 47.987 115.018 L 49.974 112.228 47.237 111.667 C 44.606 111.128, 28.012 116.683, 28.004 118.106 C 28 118.788, 45.608 127.074, 51 128.928 C 54.287 130.058, 55.331 129.776, 68.183 124.288 L 81.865 118.444 74.183 115.297 C 69.957 113.567, 64.772 111.418, 62.659 110.524 C 60.340 109.541, 59.102 109.356, 59.534 110.056 M 234.541 121.381 C 220.976 128.478, 218.470 130.149, 217.834 132.529 C 217.422 134.069, 217.327 135.720, 217.623 136.199 C 217.919 136.678, 225.662 140.825, 234.831 145.415 L 251.501 153.761 268.311 145.344 C 285.036 136.970, 285.120 136.912, 284.811 133.796 C 284.518 130.846, 283.546 130.157, 268 121.890 C 258.925 117.063, 251.275 113.096, 251 113.073 C 250.725 113.050, 243.319 116.789, 234.541 121.381 M 57.811 116.796 C 57.478 119.676, 54 121.343, 54 118.623 C 54 117.785, 54.788 116.641, 55.750 116.080 C 57.240 115.213, 57.263 115.056, 55.911 115.030 C 55.036 115.014, 53.811 116.120, 53.187 117.488 C 52.165 119.732, 52.335 120.122, 54.912 121.455 C 57.523 122.805, 57.962 122.767, 59.971 121.025 C 62.331 118.978, 62.096 115.634, 59.523 114.647 C 58.573 114.283, 58.022 114.973, 57.811 116.796 M 442.178 117.286 C 441.371 118.258, 441.584 118.571, 443.055 118.571 C 444.125 118.571, 445 117.993, 445 117.286 C 445 116.579, 444.605 116, 444.122 116 C 443.640 116, 442.765 116.579, 442.178 117.286 M 448 117.500 C 448.993 118.697, 448.993 119.303, 448 120.500 C 446.417 122.408, 448.015 122.447, 450.559 120.562 C 452.477 119.141, 452.476 119.106, 450.500 117.594 C 447.921 115.621, 446.393 115.564, 448 117.500 M 22 130.272 L 22 140.544 32.250 145.730 C 37.888 148.582, 44.877 152.330, 47.783 154.059 L 53.065 157.203 52.783 145.377 L 52.500 133.551 38 126.830 C 30.025 123.134, 23.163 120.085, 22.750 120.055 C 22.337 120.025, 22 124.622, 22 130.272 M 70.500 127.128 L 55.500 133.886 55.219 146.021 C 54.917 159.026, 54.691 158.604, 60 154.953 C 61.375 154.007, 67.450 150.657, 73.500 147.508 C 79.550 144.359, 84.854 141.455, 85.287 141.055 C 85.720 140.654, 85.945 135.836, 85.787 130.348 L 85.500 120.370 70.500 127.128 M 353.441 121.468 C 352.070 122.506, 351.917 122.946, 352.921 122.968 C 353.703 122.986, 355.156 123.736, 356.150 124.636 C 357.825 126.151, 358.005 126.150, 358.591 124.623 C 359.193 123.054, 357.527 120, 356.069 120 C 355.691 120, 354.509 120.661, 353.441 121.468 M 413 130.417 L 413 140.834 424.250 146.880 C 430.438 150.206, 437.413 154.094, 439.750 155.520 L 444 158.113 444 146.052 L 444 133.990 429.349 126.995 C 421.291 123.148, 414.316 120, 413.849 120 C 413.382 120, 413 124.688, 413 130.417 M 461.553 126.704 C 453.882 130.163, 447.229 133.371, 446.769 133.831 C 446.308 134.292, 446.059 139.631, 446.216 145.697 L 446.500 156.725 459.938 149.389 C 467.328 145.354, 473.983 141.446, 474.726 140.703 C 475.715 139.713, 475.999 136.817, 475.788 129.883 L 475.500 120.413 461.553 126.704 M 361.300 135.109 C 362.687 137.330, 364 137.577, 364 135.617 C 364 134.856, 363.127 134.005, 362.060 133.726 C 360.376 133.286, 360.275 133.468, 361.300 135.109 M 207.929 146.750 C 202.025 149.741, 199.589 153.595, 201.867 156.340 C 202.534 157.143, 210.599 161.629, 219.790 166.309 C 228.980 170.989, 239.356 176.434, 242.846 178.409 C 246.336 180.384, 249.374 182, 249.596 182 C 249.818 182, 249.972 177.838, 249.939 172.750 L 249.878 163.500 233.292 155.500 C 222.908 150.491, 216.530 146.846, 216.236 145.750 C 215.599 143.376, 214.276 143.535, 207.929 146.750 M 62.366 157.288 C 60.240 158.360, 57.680 159.958, 56.679 160.839 C 54.994 162.319, 54.448 162.225, 49.397 159.581 L 43.938 156.722 32.469 162.014 C 21.786 166.944, 21 167.501, 21 170.141 C 21 172.341, 21.860 173.518, 24.844 175.402 C 32.908 180.492, 52.630 189.759, 55.500 189.806 C 59.949 189.879, 93.192 173.237, 92.788 171.139 C 92.618 170.254, 86.591 166.349, 79.356 162.436 L 66.233 155.337 62.366 157.288 M 449.819 158.565 L 444.138 162.076 439.141 159.288 L 434.143 156.500 422.028 162.488 C 405.393 170.711, 405.359 170.587, 427.332 182.272 L 444.165 191.223 462.349 182.612 C 472.351 177.875, 481.224 174, 482.067 174 C 486.365 174, 487.469 180.712, 483.658 183.677 C 482.370 184.680, 473.605 189.325, 464.179 194 L 447.041 202.500 447.021 212.668 L 447 222.836 472.250 209.976 C 487.136 202.395, 497.635 196.464, 497.829 195.528 C 498.010 194.654, 496.459 189.645, 494.382 184.397 C 490.191 173.810, 490.243 173.861, 476.500 166.453 C 471.550 163.784, 465.025 160.117, 462 158.303 C 458.975 156.489, 456.275 155.016, 456 155.029 C 455.725 155.043, 452.944 156.634, 449.819 158.565 M 502.020 163.982 C 497.906 167.226, 494.361 170.418, 494.142 171.075 C 493.923 171.732, 497.401 169.244, 501.872 165.545 C 508.874 159.752, 510.868 157.853, 509.750 158.042 C 509.613 158.066, 506.134 160.739, 502.020 163.982 M 8.250 182.255 L 1 186.390 1 191.978 L 1 197.566 26.750 210.316 C 40.913 217.328, 52.837 223.051, 53.250 223.033 C 53.663 223.015, 53.999 218.162, 53.998 212.250 L 53.996 201.500 35.518 192 C 19.885 183.962, 17.037 182.154, 17.020 180.250 C 17.009 179.012, 16.663 178.027, 16.250 178.061 C 15.838 178.094, 12.238 179.981, 8.250 182.255 M 95.300 182.383 C 94.860 183.144, 86.122 188.024, 75.882 193.227 L 57.263 202.687 57.073 212.905 L 56.884 223.124 82.192 210.312 L 107.500 197.500 107.798 192.910 C 108.075 188.656, 107.800 188.052, 104.045 184.660 C 99.824 180.846, 96.664 180.024, 95.300 182.383 M 398.500 182.167 C 393.501 184.932, 392 187.234, 392 192.135 C 392 194.771, 392.562 197.365, 393.250 197.908 C 393.938 198.451, 405.637 204.533, 419.250 211.423 L 444 223.952 444.125 214.476 C 444.194 209.264, 444.306 204.288, 444.375 203.418 C 444.520 201.585, 406.077 180.980, 402.606 181.030 C 401.448 181.047, 399.600 181.559, 398.500 182.167 M 233.750 209.059 L 218 217.012 218 220.499 C 218 223.982, 218.018 223.996, 231.750 230.820 C 253.191 241.475, 249.595 241.174, 265.117 233.615 C 282.667 225.069, 285 223.560, 285 220.755 C 285 219.504, 284.212 217.996, 283.250 217.402 C 277.681 213.968, 252.010 201.009, 250.865 201.053 C 250.114 201.082, 242.412 204.685, 233.750 209.059 M 287.500 233.999 C 287.069 235.357, 282.001 238.356, 271.683 243.358 C 263.332 247.407, 255.713 250.994, 254.750 251.328 C 253.396 251.800, 252.983 253.131, 252.923 257.219 C 252.881 260.123, 252.702 263.248, 252.525 264.163 C 252.255 265.556, 253.200 265.376, 258.351 263.054 C 270.896 257.400, 304 240.891, 304 240.290 C 304 239.947, 303.703 239.964, 303.340 240.327 C 302.977 240.690, 302.014 240.038, 301.202 238.878 C 300.039 237.218, 290.432 232, 288.539 232 C 288.317 232, 287.849 232.899, 287.500 233.999 M 49.500 234.229 C 48.400 234.871, 42.917 237.243, 37.316 239.498 L 27.132 243.600 40.575 250.300 C 54.219 257.100, 56 257.761, 56 256.031 C 56 255.499, 55.360 255.309, 54.577 255.609 C 52.949 256.233, 45.020 242.847, 45.035 239.500 C 45.044 237.627, 45.159 237.649, 46.851 239.848 L 48.657 242.197 51.328 239.022 C 55.514 234.047, 54.475 231.324, 49.500 234.229 M 432.288 237.463 C 427.221 239.927, 421.900 242.238, 420.464 242.598 C 418.138 243.182, 419.082 243.907, 429.079 249.217 C 435.254 252.497, 440.913 255.413, 441.653 255.697 C 444.165 256.661, 443.086 251.862, 440 248.347 C 438.350 246.468, 437 244.452, 437 243.866 C 437 243.281, 438.413 241.483, 440.139 239.870 C 442.624 237.549, 443.093 236.526, 442.389 234.961 C 441.540 233.073, 441.083 233.186, 432.288 237.463 M 57 235.064 C 57 235.767, 57.745 237.165, 58.655 238.171 C 59.645 239.265, 59.846 240, 59.155 240 C 58.520 240, 58 240.900, 58 242 C 58 243.111, 58.667 244, 59.500 244 C 60.325 244, 61 244.402, 61 244.893 C 61 245.384, 60.325 246.045, 59.500 246.362 C 58.675 246.678, 58 247.595, 58 248.398 C 58 249.536, 58.942 249.333, 62.256 247.481 C 68.737 243.858, 74 241.843, 74 242.985 C 74 243.541, 70.405 245.685, 66.011 247.748 C 59.063 251.011, 55.693 254.026, 57.251 255.585 C 57.490 255.823, 63.133 253.409, 69.792 250.220 L 81.898 244.421 70.699 239.588 C 64.539 236.930, 58.938 234.538, 58.250 234.271 C 57.563 234.004, 57 234.361, 57 235.064 M 446.003 235.643 C 446.004 236.765, 447.489 238.292, 449.753 239.500 C 454.632 242.104, 455.295 245.836, 451.420 248.884 C 449.941 250.048, 448.116 251, 447.365 251 C 446.564 251, 446 252.067, 446 253.583 C 446 255.004, 446.380 256.017, 446.845 255.833 C 451.601 253.956, 470.996 244.504, 470.984 244.070 C 470.975 243.756, 466.138 241.655, 460.234 239.400 C 454.330 237.145, 448.712 234.959, 447.750 234.543 C 446.440 233.976, 446.001 234.252, 446.003 235.643 M 52.250 240.944 C 49.385 243.334, 49.422 244.785, 52.488 250.148 L 54.976 254.500 54.988 251.367 C 54.997 249.068, 54.467 248.094, 53 247.710 C 51.900 247.423, 51 246.695, 51 246.094 C 51 245.492, 51.900 245, 53 245 C 54.556 245, 55 244.333, 55 242 C 55 238.492, 55.129 238.542, 52.250 240.944 M 440.636 242.506 C 440.288 243.413, 440.639 244, 441.531 244 C 443.149 244, 443.517 242.437, 442.105 241.565 C 441.612 241.260, 440.952 241.684, 440.636 242.506 M 446.559 241.904 C 446.187 242.507, 446.316 243, 446.847 243 C 447.378 243, 447.571 244.012, 447.275 245.250 C 446.760 247.406, 446.815 247.427, 448.583 245.750 C 450.273 244.148, 450.294 243.865, 448.833 242.404 C 447.747 241.319, 447.020 241.159, 446.559 241.904 M 127.750 247.575 L 117 252.922 117 258.394 C 117 262.909, 117.335 263.972, 118.918 264.474 C 122.729 265.683, 126 269.089, 125.978 271.823 L 125.956 274.500 124.228 272.367 C 122.652 270.422, 118.957 268, 117.566 268 C 117.255 268, 117 269.994, 117 272.431 L 117 276.862 130.241 283.357 C 137.523 286.929, 143.644 289.689, 143.843 289.490 C 144.042 289.291, 143.903 286.928, 143.533 284.238 C 142.970 280.149, 142.343 279.043, 139.697 277.480 C 134.156 274.207, 128 267.892, 128 265.482 C 128 263.711, 129.398 262.493, 134.424 259.888 L 140.848 256.557 144.501 258.299 C 148.110 260.020, 148.213 260.009, 153.077 257.362 C 155.785 255.888, 158 254.294, 158 253.819 C 158 252.654, 141.349 241.970, 139.759 242.114 C 139.067 242.177, 133.662 244.634, 127.750 247.575 M 304.362 243.500 C 304.678 244.325, 304.529 245, 304.031 245 C 303.533 245, 291.601 250.661, 277.517 257.579 L 251.909 270.158 252.204 276.329 L 252.500 282.500 269.219 291.019 C 278.414 295.704, 286.366 299.979, 286.889 300.519 C 287.412 301.059, 288.155 305.600, 288.538 310.612 L 289.236 319.724 286.577 320.391 C 284.959 320.798, 284.190 321.499, 284.614 322.184 C 285.024 322.848, 284.861 323.032, 284.216 322.634 C 282.960 321.857, 269.891 328.014, 270.546 329.074 C 270.784 329.459, 270.421 329.712, 269.739 329.637 C 269.058 329.562, 265.012 331.044, 260.750 332.931 L 253 336.361 253 343.253 L 253 350.144 271.925 340.356 C 282.334 334.972, 290.589 330.145, 290.271 329.629 C 289.952 329.113, 290.194 329.002, 290.808 329.381 C 291.422 329.761, 294.192 328.923, 296.963 327.519 C 301.106 325.419, 302 324.495, 302 322.312 C 302 320.852, 301.255 318.835, 300.345 317.829 C 298.794 316.115, 298.816 316, 300.705 316 C 301.814 316, 304.445 317.170, 306.551 318.599 C 310.178 321.061, 310.451 321.104, 311.691 319.408 C 312.411 318.423, 313 317.360, 313 317.045 C 313 316.730, 314.804 315.357, 317.009 313.994 C 319.215 312.631, 321.269 310.729, 321.574 309.766 C 321.880 308.804, 327.613 304.359, 334.315 299.888 C 341.017 295.418, 346.617 291.463, 346.760 291.100 C 347.206 289.968, 334.125 283.988, 333.482 285.029 C 332.321 286.907, 331.084 285.966, 330.484 282.750 C 330.151 280.962, 330.245 274.325, 330.695 268 L 331.511 256.500 324.506 251.753 C 318.857 247.925, 316.672 247.005, 313.225 247.003 C 309.587 247, 308.809 246.628, 308 244.500 C 307.477 243.125, 306.315 242, 305.418 242 C 304.378 242, 303.995 242.544, 304.362 243.500 M 353 248.114 C 340.263 255.407, 339.932 255.705, 343.605 256.574 C 345.197 256.950, 348.179 258.178, 350.230 259.302 C 353.613 261.156, 354.125 261.202, 355.730 259.801 C 360.009 256.068, 361.825 255.774, 366.026 258.135 C 368.212 259.363, 370 260.770, 370 261.261 C 370 261.752, 368.601 263.553, 366.891 265.262 C 363.278 268.875, 358.498 275.831, 359.167 276.500 C 359.420 276.753, 362.186 275.359, 365.313 273.403 C 369.024 271.082, 371 269.178, 371 267.923 C 371 265.913, 373.432 265.272, 374.500 267 C 375.426 268.499, 379.262 268.205, 381.777 266.443 C 383.681 265.110, 384 263.967, 384 258.484 L 384 252.082 374.750 247.057 C 369.663 244.293, 365.050 242.047, 364.500 242.067 C 363.950 242.086, 358.775 244.807, 353 248.114 M 21 255.539 L 21 266.078 35.500 273.135 C 43.475 277.016, 49.777 280.552, 49.505 280.991 C 49.234 281.431, 49.698 282.054, 50.537 282.376 C 51.861 282.884, 52.026 281.408, 51.782 271.231 L 51.500 259.500 37.500 252.293 C 29.800 248.329, 22.938 245.066, 22.250 245.043 C 21.326 245.011, 21 247.752, 21 255.539 M 410.789 252.391 C 409.953 265.412, 409.351 264.538, 424.830 272.768 C 432.349 276.765, 439.512 280.758, 440.750 281.640 L 443 283.244 442.940 271.372 L 442.880 259.500 427.690 252.214 C 419.336 248.207, 412.222 244.945, 411.882 244.964 C 411.541 244.984, 411.050 248.326, 410.789 252.391 M 69 253.978 L 54.500 260.866 54.217 272.527 C 54.062 278.941, 54.287 284.033, 54.717 283.844 C 55.148 283.655, 58.425 281.865, 62 279.867 C 65.575 277.868, 72.325 274.210, 77 271.736 L 85.500 267.239 85.785 257.120 C 86.003 249.378, 85.768 247.010, 84.785 247.045 C 84.078 247.069, 76.975 250.189, 69 253.978 M 460 253.343 L 446.500 259.613 446.218 271.345 L 445.936 283.077 451.218 279.982 C 454.123 278.279, 460.663 274.785, 465.750 272.217 L 475 267.549 475 257.274 C 475 251.623, 474.663 247.017, 474.250 247.037 C 473.837 247.058, 467.425 249.895, 460 253.343 M 155.162 258.692 L 150.824 261.307 153.912 262.605 C 156.639 263.752, 157 264.376, 157 267.942 L 157 271.981 163.500 268.776 L 170 265.571 170 261.174 L 170 256.777 166.578 257.419 C 164.593 257.792, 162.888 257.628, 162.519 257.031 C 161.549 255.461, 159.909 255.832, 155.162 258.692 M 335.750 258.080 C 332.878 259.753, 333.482 264.681, 336.768 266.380 C 340.573 268.347, 343 266.543, 343 261.747 C 343 257.255, 339.878 255.676, 335.750 258.080 M 101.044 259.250 C 101.068 259.938, 101.457 262.410, 101.908 264.744 L 102.729 268.988 98.862 265.494 C 91.582 258.917, 90.898 261.795, 97.598 270.812 C 102.597 277.539, 104.996 278.653, 105.006 274.250 C 105.010 272.738, 105.685 270.211, 106.506 268.636 C 108.467 264.877, 108.437 264.673, 105.411 261.077 C 102.701 257.856, 100.970 257.132, 101.044 259.250 M 162.924 260.363 C 164.258 261.813, 165.550 263, 165.796 263 C 166.783 263, 163.232 258.579, 161.914 258.168 C 161.136 257.925, 161.591 258.912, 162.924 260.363 M 358.752 261.841 C 356.194 263.385, 356.008 263.949, 356.065 270 C 356.116 275.326, 356.305 276.053, 357.116 274.022 C 357.659 272.659, 359.857 269.222, 361.999 266.385 C 364.141 263.548, 365.617 260.951, 365.280 260.613 C 364.263 259.597, 361.660 260.086, 358.752 261.841 M 141.774 263.063 C 140.825 263.618, 138.013 264.113, 135.524 264.163 C 130.326 264.267, 129.800 265.524, 133.500 269 C 134.875 270.292, 136 270.923, 136 270.402 C 136 269.881, 137.558 268.616, 139.462 267.590 C 142.488 265.961, 143.338 265.889, 146.212 267.023 C 151.183 268.985, 151.822 269.972, 149.250 271.717 C 148.012 272.557, 147 274.114, 147 275.179 C 147 277.041, 147.108 277.049, 149.907 275.396 C 152.418 273.913, 154 270.661, 154 266.984 C 154 266.356, 149.854 264.363, 144.500 262.417 C 143.950 262.217, 142.724 262.508, 141.774 263.063 M 350 263.679 C 350 264.838, 349.325 266.045, 348.500 266.362 C 345.807 267.395, 346.704 271.796, 349.950 273.474 C 351.573 274.313, 353.127 275, 353.403 275 C 354.471 275, 352.679 264.422, 351.376 263.036 C 350.180 261.763, 350 261.847, 350 263.679 M 402.112 265.520 L 396.752 268.900 399.575 269.608 C 401.744 270.153, 402.641 269.895, 403.449 268.496 C 404.027 267.495, 405.325 265.811, 406.333 264.754 C 409.302 261.644, 407.839 261.909, 402.112 265.520 M 333.653 268.680 C 333.294 269.039, 333 271.736, 333 274.672 L 333 280.010 345.347 286.160 L 357.694 292.310 366.599 286.802 C 371.496 283.773, 377.415 280.319, 379.752 279.127 C 383.800 277.061, 384 276.747, 384 272.454 L 384 267.949 381.050 269.474 C 379.427 270.313, 377.659 271, 377.120 271 C 376.582 271, 373.522 272.705, 370.321 274.790 C 367.119 276.874, 363.262 279.114, 361.750 279.768 C 359.508 280.737, 359 281.597, 359 284.420 C 359 288.175, 357.579 289.951, 356.605 287.412 C 356.272 286.546, 356 284.555, 356 282.988 C 356 280.465, 355.117 279.660, 348.250 275.928 C 343.988 273.611, 339.107 270.885, 337.403 269.871 C 335.700 268.856, 334.013 268.321, 333.653 268.680 M 157.750 274.619 L 147 280.018 147 288.517 C 147 296.709, 147.071 296.973, 148.960 295.793 C 150.382 294.905, 150.588 294.351, 149.710 293.777 C 148.844 293.211, 149.193 292.449, 150.934 291.100 C 155.163 287.823, 159 285.843, 159 286.937 C 159 287.514, 160.012 287.136, 161.250 286.096 C 162.488 285.056, 164.765 283.146, 166.311 281.852 C 168.825 279.747, 169.089 278.956, 168.811 274.359 L 168.500 269.220 157.750 274.619 M 138.733 273.124 C 139.412 273.808, 140.219 274.115, 140.526 273.807 C 140.834 273.499, 140.279 272.940, 139.293 272.564 C 137.868 272.022, 137.753 272.136, 138.733 273.124 M 59.420 285.403 C 54.545 288.686, 54.195 288.767, 49.537 287.701 C 46.332 286.968, 44.549 285.991, 44.237 284.798 C 43.978 283.809, 43.482 283.018, 43.133 283.040 C 42.785 283.063, 37.550 285.955, 31.500 289.469 C 15.993 298.474, 15.887 298.160, 38.233 309.496 L 55.966 318.492 74.483 309.249 C 85.574 303.714, 93 299.433, 93 298.576 C 93 296.961, 85.461 292.197, 73.272 286.109 C 68.747 283.849, 64.916 282, 64.759 282 C 64.602 282, 62.199 283.531, 59.420 285.403 M 448.856 285.458 L 444.212 288.866 440.084 285.830 C 437.232 283.733, 435.267 282.973, 433.728 283.371 C 432.503 283.689, 426.775 286.772, 421 290.224 C 413.882 294.478, 410.416 297.144, 410.239 298.500 C 410.023 300.158, 412.955 302.032, 427.390 309.462 L 444.801 318.424 460.651 310.813 C 469.368 306.627, 477.512 302.901, 478.750 302.534 C 480.362 302.055, 481 301.100, 481 299.170 C 481 296.772, 479.619 295.674, 468.500 289.237 C 461.625 285.257, 455.438 282.011, 454.750 282.025 C 454.063 282.038, 451.410 283.583, 448.856 285.458 M 234 293.401 C 218.367 301.268, 217.484 301.868, 217.189 304.816 C 216.880 307.910, 216.981 307.979, 234.161 316.580 L 251.443 325.233 268.266 316.868 C 284.741 308.676, 285.083 308.441, 284.795 305.530 C 284.552 303.082, 283.618 302.113, 279.493 300.029 C 276.739 298.638, 269.204 294.688, 262.750 291.250 C 256.295 287.813, 250.898 285.022, 250.757 285.049 C 250.616 285.076, 243.075 288.835, 234 293.401 M 365.186 291.277 C 359.382 294.972, 358.594 295.211, 355.436 294.242 C 352.119 293.224, 352 293.279, 351.997 295.844 C 351.994 298.112, 350.320 299.631, 340.531 306.250 C 334.226 310.512, 328.815 314, 328.505 314 C 328.196 314, 324.329 316.475, 319.912 319.500 C 311.326 325.380, 309.945 325.844, 308 323.500 C 306.157 321.279, 305.171 321.666, 304.816 324.750 C 304.527 327.262, 302.295 328.624, 279 340.500 L 253.500 353.500 253.684 366.500 L 253.867 379.500 269.639 387.741 C 278.313 392.273, 286.050 396.622, 286.832 397.404 C 287.665 398.236, 288.460 401.701, 288.750 405.757 C 289.245 412.669, 289.256 412.691, 292.873 413.979 C 297.788 415.730, 302 418.810, 302 420.651 C 302 421.485, 302.383 422.017, 302.852 421.833 C 303.320 421.650, 334.495 406, 372.129 387.056 L 440.555 352.611 413.786 339.265 C 391.476 328.142, 386.915 325.510, 386.401 323.460 C 385.558 320.102, 386.721 315.958, 389.274 313.223 C 390.926 311.453, 391.341 309.896, 391.138 306.223 C 390.697 298.245, 389.414 296.566, 380.034 291.692 L 371.500 287.258 365.186 291.277 M 340.981 298.523 C 339.924 299.796, 339.986 299.943, 341.359 299.416 C 342.261 299.069, 343 298.384, 343 297.893 C 343 296.607, 342.421 296.788, 340.981 298.523 M 333 304.089 C 330.846 305.851, 330.804 305.986, 332.694 305.062 C 333.901 304.472, 335.165 303.542, 335.503 302.995 C 336.406 301.534, 335.800 301.799, 333 304.089 M 483.195 309.297 C 483.463 311.233, 481.351 312.571, 465.750 320.345 L 448 329.190 448 339.130 C 448 348.450, 448.114 349.009, 449.829 348.092 C 450.834 347.553, 462.224 341.980, 475.138 335.707 L 498.620 324.301 498.456 319.454 C 498.271 313.960, 497.306 312.998, 488.269 309.297 L 482.890 307.094 483.195 309.297 M 95.513 309.174 C 95.886 310.146, 93.607 311.766, 88.075 314.463 C 83.689 316.602, 80.325 318.718, 80.602 319.165 C 80.878 319.611, 80.332 319.681, 79.388 319.319 C 78.132 318.836, 77.891 319.015, 78.490 319.985 C 79.023 320.846, 78.922 321.070, 78.201 320.624 C 76.843 319.785, 63.702 326.368, 64.715 327.381 C 65.113 327.780, 64.591 327.780, 63.555 327.383 C 62.338 326.916, 61.903 327.034, 62.325 327.717 C 62.684 328.299, 62.421 328.754, 61.739 328.730 C 61.058 328.705, 59.263 328.756, 57.750 328.842 L 55 329 55 339.441 C 55 345.762, 55.421 350.142, 56.067 350.542 C 56.654 350.904, 59.692 349.632, 62.817 347.713 C 65.943 345.795, 77.050 339.954, 87.500 334.735 L 106.500 325.245 106.168 318.703 C 105.790 311.247, 104.559 309.551, 98.738 308.471 C 95.734 307.914, 95.084 308.055, 95.513 309.174 M 397.871 310.006 C 392.797 312.687, 388.823 317.667, 389.197 320.873 C 389.468 323.192, 392.296 324.859, 416 336.674 C 430.575 343.938, 443.288 349.908, 444.250 349.941 C 445.809 349.994, 446 348.856, 446 339.500 C 446 333.725, 445.592 329, 445.094 329 C 444.596 329, 435.318 324.275, 424.476 318.500 C 413.635 312.725, 404.030 308.020, 403.132 308.044 C 402.235 308.069, 399.867 308.951, 397.871 310.006 M 319.644 314.546 C 313.372 319.335, 313.754 319.889, 320.250 315.427 C 326.446 311.170, 326.641 311, 325.310 311 C 324.748 311, 322.198 312.596, 319.644 314.546 M 217.309 328.636 C 216.498 330.750, 218.316 333.540, 220.388 333.361 C 221.275 333.285, 222 333.793, 222 334.490 C 222 336.035, 227.469 338.446, 228.928 337.544 C 229.529 337.173, 229.756 337.473, 229.459 338.247 C 228.796 339.974, 236.203 344.243, 238.399 343.400 C 240.519 342.587, 240.431 341.272, 238.211 340.567 C 237.057 340.201, 236.435 339.038, 236.461 337.295 C 236.488 335.408, 235.762 334.219, 234.056 333.357 C 231.362 331.996, 228.982 332.686, 231.143 334.201 C 232.238 334.969, 232.210 335.065, 231 334.701 C 230.175 334.453, 229.613 333.744, 229.750 333.125 C 230.125 331.438, 226.712 328.432, 224.832 328.794 C 223.927 328.968, 222.893 328.636, 222.534 328.055 C 221.524 326.420, 218.010 326.811, 217.309 328.636 M 224 332.819 C 224 334.027, 225.897 335.436, 226.591 334.743 C 226.842 334.491, 226.362 333.716, 225.524 333.020 C 224.574 332.231, 224 332.155, 224 332.819 M 59.335 378.318 C 49.294 383.437, 49.169 383.545, 49.085 387.168 C 48.975 391.924, 49.818 394.001, 51.857 393.998 C 54.186 393.994, 76.092 381.801, 77.349 379.809 C 78.084 378.643, 78.046 377.396, 77.217 375.578 C 75.428 371.651, 71.114 372.312, 59.335 378.318 M 71 380.050 L 68.500 382.055 71.250 380.867 C 72.763 380.214, 74 379.301, 74 378.839 C 74 377.699, 73.861 377.755, 71 380.050 M 59.647 386.114 C 55.328 388.321, 52.005 390.338, 52.262 390.595 C 52.745 391.079, 68 383.148, 68 382.413 C 68 381.826, 68.267 381.708, 59.647 386.114 M 233.250 390.293 C 218.233 397.851, 217 398.678, 217 401.194 C 217 403.345, 217.891 404.430, 221.250 406.367 C 229.305 411.013, 249.495 421, 250.832 421 C 251.569 421, 259.783 417.329, 269.086 412.842 C 280.474 407.350, 286 404.164, 286 403.092 C 286 402.217, 284.537 400.346, 282.750 398.935 C 279.039 396.007, 252.319 381.970, 250.621 382.057 C 250.004 382.089, 242.188 385.795, 233.250 390.293 M 271.319 424.467 L 254.137 432.902 253.493 437.201 C 253.139 439.565, 252.995 443.173, 253.174 445.218 L 253.500 448.935 275.426 438.418 C 287.486 432.633, 297.888 427.168, 298.542 426.273 C 300.405 423.726, 298.777 419.886, 294.969 417.844 C 293.078 416.830, 290.849 416.007, 290.016 416.016 C 289.182 416.025, 280.768 419.828, 271.319 424.467 M 296.500 440.214 C 293.299 442.289, 266.407 455.479, 258.027 459.084 L 253 461.246 253 469.623 C 253 474.852, 253.398 478, 254.059 478 C 254.641 478, 254.843 477.555, 254.507 477.011 C 254.170 476.466, 254.528 476.265, 255.306 476.564 C 256.557 477.044, 298.597 458.184, 301.750 455.729 C 302.438 455.193, 303 453.209, 303 451.320 C 303 447.520, 301.110 439.164, 300.127 438.617 C 299.782 438.426, 298.150 439.144, 296.500 440.214" stroke="none" fill="red" fill-rule="evenodd"/>
</svg>
