<svg xmlns="http://www.w3.org/2000/svg" width="512" height="512" viewBox="0 0 512 512" version="1.1">
	<path d="M 277.882 16.330 C 268.727 19.730, 261.255 26.868, 258.554 34.795 C 256.805 39.930, 256.505 50.788, 257.973 55.905 C 258.926 59.228, 258.777 59.473, 250.570 68.097 C 240.641 78.531, 232.616 90.254, 226.591 103.129 C 222.734 111.371, 221.286 113.324, 214.577 119.343 C 207.761 125.458, 206.234 126.348, 200.225 127.704 C 196.526 128.540, 189.675 129.512, 185 129.866 C 180.325 130.219, 175.952 130.862, 175.283 131.293 C 174.613 131.725, 170.854 131.102, 166.928 129.910 C 161.767 128.342, 158.329 127.893, 154.508 128.287 C 148.705 128.886, 143.215 131.276, 142.327 133.590 C 141.325 136.202, 144.954 143.676, 151.064 151.583 C 154.329 155.807, 156.996 159.992, 156.990 160.882 C 156.985 161.772, 155.808 164.975, 154.376 168 C 150.498 176.188, 150.084 184.934, 153.241 192 C 154.593 195.025, 157.341 199.455, 159.349 201.845 C 161.357 204.234, 163 206.990, 163 207.969 C 163 211.693, 159.818 218.502, 155.096 224.879 C 152.401 228.521, 149.422 233.300, 148.476 235.500 C 147.531 237.700, 146.430 240.175, 146.030 241 C 145.331 242.440, 132.602 250.831, 124.712 255.053 C 121.263 256.898, 120.976 257.366, 121.499 260.290 C 121.815 262.055, 122.441 267.615, 122.890 272.645 C 123.498 279.444, 124.301 282.751, 126.022 285.535 C 128.578 289.670, 128.625 289.577, 122.159 293.155 C 119.583 294.581, 119.072 295.573, 118.482 300.294 C 117.872 305.178, 117.265 306.280, 112.934 310.368 L 108.070 314.958 107.785 324.976 L 107.500 334.993 101.881 331.605 C 92.908 326.196, 93.182 326.177, 82.117 332.977 L 72.192 339.076 72.738 350.926 C 73.268 362.428, 73.216 362.831, 70.969 364.638 C 69.695 365.662, 66.355 368.750, 63.547 371.500 C 60.738 374.250, 55.089 378.525, 50.993 381 C 46.897 383.475, 43.597 385.950, 43.659 386.500 C 43.788 387.642, 66.039 401.285, 92.549 416.478 C 113.654 428.573, 165.657 460.030, 174.680 466.160 C 176.979 467.722, 179.326 469, 179.895 469 C 181.390 469, 199.086 458.053, 257.500 420.994 C 269.050 413.667, 285.025 403.542, 293 398.496 C 300.975 393.449, 314.025 385.042, 322 379.813 C 329.975 374.583, 337.979 369.541, 339.787 368.608 C 342.747 367.079, 343.013 366.586, 342.462 363.650 C 341.931 360.817, 342.194 360.233, 344.472 359.195 C 347.945 357.612, 348.994 357.685, 351.171 359.655 C 352.884 361.205, 353 361.186, 353 359.355 C 353 358.280, 352.460 356.860, 351.800 356.200 C 350.344 354.744, 346.354 354.618, 345.500 356 C 345.160 356.550, 344.234 357, 343.441 357 C 342.303 357, 342 355.267, 342 348.750 C 342 340.544, 342.018 340.485, 345.448 337.749 L 348.897 334.997 367.003 346.111 L 385.110 357.226 376.805 363.044 C 372.237 366.245, 358.643 374.833, 346.596 382.130 C 328.870 392.867, 295.977 413.843, 294.067 415.628 C 293.828 415.851, 294.084 416.484, 294.634 417.034 C 295.302 417.702, 297.703 416.699, 301.851 414.018 C 305.270 411.808, 308.312 410, 308.611 410 C 308.909 410, 311.667 411.800, 314.740 414 C 317.812 416.200, 320.682 418, 321.118 418 C 321.553 418, 327.094 414.850, 333.430 411 C 339.767 407.150, 345.187 404, 345.476 404 C 345.764 404, 346 406.244, 346 408.987 C 346 413.690, 346.189 414.052, 349.323 415.361 C 351.150 416.125, 354.188 418.090, 356.073 419.728 C 362.069 424.939, 367.132 426.468, 369.743 423.857 C 370.371 423.229, 372.489 422.666, 374.449 422.607 C 378.297 422.491, 379.372 420.814, 376.119 420 C 374.305 419.546, 374.481 419.114, 378.018 415.333 L 381.917 411.167 381.382 414.333 C 381.088 416.075, 380.198 420.553, 379.404 424.285 C 378.071 430.551, 378.096 431.257, 379.730 433.506 C 382.849 437.799, 399.572 443.316, 407.966 442.822 C 412.924 442.530, 413.647 442.180, 415.740 439.067 C 418.586 434.833, 423 420.674, 423 415.780 C 423 413.791, 423.273 411.452, 423.607 410.582 C 424.397 408.523, 429.979 408.508, 436.842 410.546 L 442.048 412.092 445.332 408.796 C 447.138 406.983, 450.218 404.150, 452.176 402.500 L 455.737 399.500 456.463 387.808 C 456.863 381.378, 456.917 375.675, 456.583 375.135 C 455.788 373.847, 448.653 371.512, 436.636 368.607 L 426.918 366.258 424.076 370.379 C 422.512 372.646, 420.243 375.391, 419.033 376.480 L 416.834 378.461 410.296 374.980 C 406.700 373.066, 403.545 370.825, 403.285 370 C 401.418 364.073, 400.344 362.751, 394.628 359.340 C 391.258 357.329, 379.921 350.355, 369.436 343.842 C 358.951 337.329, 349.855 332, 349.221 332 C 348.588 332, 346.532 333.350, 344.653 335 C 342.774 336.650, 340.641 338, 339.913 338 C 339.185 338, 334.686 335.525, 329.914 332.500 C 325.142 329.475, 320.617 327, 319.858 327 C 319.100 327, 315.537 328.973, 311.942 331.385 C 303.340 337.156, 302.160 336.458, 300.813 324.807 C 299.061 309.656, 299.327 310.390, 294.470 307.322 L 290.004 304.500 290.002 297.718 C 290 290.137, 288.116 284.458, 285.341 283.669 C 284.329 283.382, 281.587 282.849, 279.250 282.485 L 275 281.824 275 273.544 L 275 265.264 268.500 261.462 C 264.925 259.372, 262 257.304, 262 256.867 C 262 256.431, 262.942 253.695, 264.094 250.787 C 266.906 243.686, 269.797 228.410, 270.608 216.358 C 271.332 205.605, 272.006 203.450, 274.932 202.521 C 277.430 201.729, 283.028 193.262, 286.476 185.063 C 288.019 181.394, 289.744 174.516, 290.488 169.063 C 291.206 163.803, 291.840 160.920, 291.897 162.655 C 291.963 164.692, 293.240 167.295, 295.500 170 C 298.875 174.039, 299 174.481, 298.988 182.345 C 298.973 192.469, 297.526 197.864, 291.519 210.178 C 287.162 219.109, 286.885 220.121, 287.928 223.281 C 288.549 225.165, 290.183 227.763, 291.559 229.055 C 293.727 231.092, 295.090 231.411, 301.797 231.453 C 311.298 231.511, 317.712 229.088, 318.650 225.088 C 318.983 223.665, 321.005 215.862, 323.143 207.750 C 329.308 184.349, 330.094 180.287, 330.427 170.100 C 330.616 164.311, 331.432 158.529, 332.483 155.534 C 335.877 145.863, 338 132.179, 338 119.969 C 338 101.565, 334.451 87.946, 324.068 66.500 L 318.257 54.500 318.759 46.776 C 319.204 39.908, 318.973 38.466, 316.671 33.776 C 311.085 22.394, 301.033 15.792, 288.500 15.275 C 284.379 15.105, 280.012 15.539, 277.882 16.330 M 278.183 20.841 C 272.139 22.997, 266.812 27.650, 263.690 33.500 C 260.676 39.145, 260.617 51.817, 263.577 57.460 C 268.279 66.422, 279.537 68.291, 291.733 62.135 C 295.100 60.435, 298.165 58.543, 298.544 57.929 C 298.976 57.230, 301.693 56.941, 305.811 57.156 C 312.100 57.485, 312.420 57.390, 313.095 55 C 314.541 49.877, 314.012 38.622, 312.129 34.478 C 306.615 22.339, 291.265 16.173, 278.183 20.841 M 285.479 43.392 C 283.873 44.566, 283.781 45.032, 284.893 46.371 C 285.863 47.540, 286.692 47.700, 288.039 46.979 C 291.192 45.292, 294.987 45.896, 297.591 48.500 C 300.482 51.391, 302.790 51.710, 303.698 49.344 C 304.124 48.235, 303.282 46.748, 301.151 44.844 C 298.503 42.478, 297.079 42, 292.675 42 C 289.732 42, 286.537 42.618, 285.479 43.392 M 293.193 65.559 C 286.017 69.396, 284.071 70, 278.894 70 C 272.679 70, 268.302 68.414, 264.226 64.686 L 261.952 62.606 255.402 69.053 C 245.504 78.797, 239.509 87.233, 232.847 100.787 C 226.119 114.477, 223.797 117.668, 217.315 122.128 C 214.864 123.813, 213.078 125.412, 213.346 125.679 C 213.613 125.947, 218.182 125.618, 223.498 124.949 C 230.640 124.050, 234.121 124.019, 236.832 124.832 C 241.953 126.366, 250 131.650, 250 133.478 C 250 135.178, 246.471 135.571, 245.488 133.981 C 245.142 133.421, 242.548 131.791, 239.725 130.361 C 235.236 128.086, 233.833 127.841, 228.546 128.411 C 225.221 128.770, 219.688 129.336, 216.250 129.669 L 210 130.274 210 135.497 L 210 140.720 215.453 141.283 C 222.586 142.019, 232.305 146.444, 235.978 150.627 C 240.532 155.814, 241.330 165.768, 237.527 169.970 C 236.107 171.539, 236.212 172.214, 238.710 177.596 C 241.008 182.547, 241.445 184.822, 241.417 191.685 C 241.374 202.266, 238.046 209.391, 230.319 215.448 C 227.475 217.676, 225.115 219.765, 225.074 220.089 C 224.963 220.972, 229.343 222.786, 233.438 223.554 C 236.528 224.134, 237.408 223.852, 239.480 221.616 C 241.854 219.054, 244 218.198, 244 219.812 C 244 220.592, 238.952 235.694, 237.524 239.188 C 236.978 240.522, 238.565 241.882, 245.087 245.672 C 249.626 248.309, 254.051 250.475, 254.920 250.484 C 255.978 250.495, 256.416 251.272, 256.247 252.834 C 256.086 254.317, 256.443 255.019, 257.225 254.758 C 259.878 253.874, 264.343 233.807, 266.515 213 C 267.405 204.475, 268.778 193.963, 269.566 189.640 C 270.355 185.316, 271 179.316, 271 176.306 C 271 172.370, 271.351 170.952, 272.250 171.255 C 273.168 171.565, 273.500 175.284, 273.500 185.255 C 273.500 200.911, 274.109 201.336, 279.578 189.500 C 285.878 175.868, 286.508 172.394, 286.421 151.750 C 286.332 130.387, 287.517 126.807, 289.483 142.500 C 290.748 152.597, 291.192 152.918, 292.622 144.763 C 294.166 135.953, 297.063 129.066, 299.996 127.235 C 302.806 125.480, 302.636 126.854, 298.853 136.500 C 296.168 143.345, 295.699 145.872, 295.607 154 C 295.510 162.604, 295.730 163.806, 297.938 166.750 C 299.363 168.650, 301.268 170, 302.523 170 C 304.576 170, 304.652 170.359, 304.283 178.250 C 303.773 189.170, 301.426 200.050, 297.897 207.863 C 295.909 212.265, 295.526 213.808, 296.656 212.871 C 298.088 211.682, 298.215 211.761, 297.692 213.508 C 297.364 214.604, 296.846 216.850, 296.542 218.500 C 296.002 221.432, 296.026 221.421, 297.619 218 C 298.515 216.075, 300.078 211.627, 301.092 208.115 C 303.051 201.331, 303.607 200.274, 304.660 201.327 C 305.023 201.690, 304.790 203.757, 304.142 205.920 C 302.795 210.417, 300.096 225.332, 300.538 225.833 C 301.251 226.639, 304.770 216.787, 306.479 209.201 C 307.508 204.637, 308.721 200.673, 309.175 200.392 C 310.397 199.637, 310.180 202.872, 308.600 208.961 C 307.830 211.929, 307.389 214.851, 307.620 215.453 C 307.851 216.055, 307.393 218.700, 306.601 221.330 C 305.571 224.752, 305.495 226.002, 306.331 225.725 C 307.843 225.223, 308.576 222.674, 310.712 210.500 C 311.829 204.132, 312.594 201.578, 312.820 203.467 C 313.015 205.099, 312.654 209.080, 312.018 212.314 C 311.382 215.548, 311.079 218.412, 311.345 218.678 C 311.611 218.944, 312.752 218.668, 313.880 218.064 C 316.544 216.638, 318.224 209.751, 320.543 190.750 C 320.862 188.137, 321.593 186, 322.168 186 C 322.743 186, 322.967 186.643, 322.666 187.429 C 322.364 188.215, 321.871 190.577, 321.570 192.679 C 321.264 194.817, 321.931 193.417, 323.083 189.500 C 324.364 185.148, 325.247 178.907, 325.418 173 C 325.621 165.969, 326.684 159.602, 329.509 148.500 C 332.965 134.916, 333.325 132.273, 333.326 120.500 C 333.328 109.597, 332.893 105.839, 330.635 97.202 C 327.702 85.988, 323.298 74.193, 319.275 66.779 C 314.839 58.603, 315.076 62.513, 319.727 74.231 C 326.123 90.344, 328.055 98.629, 328.719 112.805 C 329.276 124.688, 329.224 125.129, 327.204 125.657 C 326.054 125.958, 324.909 127.171, 324.661 128.352 C 324.412 129.533, 324.499 126.900, 324.854 122.500 C 326.001 108.291, 325.477 97.989, 323.191 89.814 C 321.083 82.276, 313.868 64.456, 312.297 62.909 C 311.859 62.477, 309.250 61.897, 306.500 61.620 C 302.012 61.169, 300.649 61.572, 293.193 65.559 M 326.500 119 C 326.160 119.550, 326.122 120, 326.416 120 C 326.710 120, 326.523 121.125, 326 122.500 C 325.389 124.107, 325.398 125, 326.025 125 C 326.561 125, 327.057 124.438, 327.128 123.750 C 327.198 123.063, 327.361 121.487, 327.491 120.250 C 327.747 117.804, 327.462 117.444, 326.500 119 M 197.500 132.523 C 194.750 133.287, 189.313 133.932, 185.417 133.956 C 181.521 133.980, 178.052 134.281, 177.709 134.624 C 177.366 134.967, 178.078 136.083, 179.293 137.104 C 181.162 138.675, 181.274 139.108, 180.026 139.927 C 178.967 140.622, 177.698 140.247, 175.526 138.596 C 172.277 136.127, 164.432 132.036, 167.099 134.202 C 167.979 134.916, 168.685 135.725, 168.670 136 C 168.654 136.275, 169.807 138.300, 171.233 140.500 C 173.118 143.410, 174.011 146.464, 174.509 151.707 C 175.189 158.855, 175.173 158.918, 172.615 159.561 C 171.196 159.917, 168.610 159.711, 166.868 159.104 C 161.792 157.334, 160.860 157.599, 162.155 160.441 C 163.110 162.537, 162.823 163.552, 160.121 167.632 C 155.632 174.409, 154.488 179.278, 155.841 185.862 C 157.157 192.273, 158.217 193.703, 163.102 195.657 C 169.252 198.118, 170.091 203.684, 165.962 214.619 C 163.979 219.870, 166.766 215.723, 171.083 207 C 174.262 200.576, 175.460 196.785, 175.989 191.478 C 176.644 184.912, 179.115 177.665, 181.122 176.425 C 182.316 175.687, 182.257 177.110, 180.336 195.366 L 178.667 211.232 174.368 216.866 C 172.004 219.965, 168.857 223.981, 167.375 225.791 C 163.945 229.980, 165.132 231.384, 171.971 231.228 L 177 231.113 177 237.057 C 177 240.326, 177.228 243, 177.507 243 C 178.610 243, 207 222.801, 207 222.016 C 207 220.203, 200.641 215.966, 197.061 215.394 C 191.595 214.520, 190.297 213.552, 191.937 211.576 C 193.462 209.738, 192.318 209.549, 188.486 211.005 C 185.274 212.226, 182.124 210.961, 184.187 209.279 C 186.713 207.219, 192.869 206.125, 196.418 207.105 C 199.582 207.979, 201.797 210.084, 207.774 217.901 L 210.049 220.875 215.626 218.957 C 229.461 214.197, 236.330 205.852, 237.531 192.343 C 238.172 185.131, 234.670 173.806, 231.673 173.401 C 230.321 173.219, 230.022 173.590, 230.525 174.827 C 232.433 179.524, 233.183 182.151, 232.741 182.593 C 232.471 182.863, 230.336 181.244, 227.996 178.996 C 222.732 173.939, 217.955 171.475, 211.620 170.551 C 201.405 169.060, 199.409 166.467, 198.423 153.407 C 197.687 143.655, 198.008 142.871, 203.250 141.619 C 205.413 141.102, 206.003 140.379, 206.014 138.231 C 206.021 136.729, 206.299 134.488, 206.630 133.250 C 207.134 131.370, 206.844 131.011, 204.867 131.067 C 203.565 131.105, 200.250 131.760, 197.500 132.523 M 161.200 136.200 C 159.341 138.059, 159.672 143, 161.656 143 C 162.567 143, 165.489 145.363, 168.150 148.250 C 173.270 153.806, 174.363 153.198, 171.514 146.380 C 169.940 142.612, 164.322 135, 163.116 135 C 162.722 135, 161.860 135.540, 161.200 136.200 M 156.005 139.007 C 157.177 140.653, 158.321 142, 158.547 142 C 159.538 142, 156.587 137.055, 155.302 136.562 C 154.363 136.202, 154.604 137.040, 156.005 139.007 M 152 141.718 C 152 142.062, 152.667 143.080, 153.482 143.980 C 154.297 144.881, 156.018 147.617, 157.306 150.059 C 159.061 153.388, 160.319 154.579, 162.329 154.817 C 165.500 155.192, 166.894 152.783, 164.899 150.378 C 163.273 148.419, 152 140.851, 152 141.718 M 209.228 147.399 C 208.079 149.922, 208.145 150, 211.428 150 C 214.237 150, 216.061 151.173, 222.156 156.897 C 226.195 160.691, 229.151 164.153, 228.724 164.590 C 228.297 165.028, 225.259 162.725, 221.974 159.474 C 218.688 156.223, 216 153.906, 216 154.325 C 216 156.036, 226.698 165.888, 229.250 166.527 C 230.762 166.907, 232 167.688, 232 168.263 C 232 168.839, 232.947 168.453, 234.103 167.406 C 237.166 164.634, 236.328 156.995, 232.525 153.026 C 229.118 149.470, 222.038 146.339, 215.416 145.461 C 210.710 144.836, 210.343 144.951, 209.228 147.399 M 205.985 155.750 C 205.972 157.966, 205.763 158.209, 204.909 157 C 203.966 155.667, 203.905 155.667, 204.359 157 C 204.640 157.825, 205.421 160.188, 206.093 162.250 C 207.270 165.856, 207.493 166.001, 211.908 166.022 C 214.434 166.034, 218.449 166.928, 220.832 168.010 L 225.163 169.975 220.687 164.996 C 215.692 159.441, 208.293 153, 206.905 153 C 206.407 153, 205.993 154.238, 205.985 155.750 M 245 192 C 245 193.100, 245.450 194, 246 194 C 246.550 194, 247 193.100, 247 192 C 247 190.900, 246.550 190, 246 190 C 245.450 190, 245 190.900, 245 192 M 167.526 216.962 C 164.561 221.242, 163.351 222.141, 164.452 219.250 C 165.404 216.749, 164.167 218.285, 157.502 227.878 C 152.940 234.445, 151.585 237.266, 151.233 240.929 C 150.813 245.293, 151.025 245.815, 154.427 248.801 C 158.469 252.350, 162.270 252.900, 165.779 250.442 C 167.003 249.585, 168.387 249.121, 168.856 249.411 C 170.472 250.410, 174.234 245.314, 173.527 243.085 C 172.999 241.422, 172.042 241, 168.801 241 C 164.236 241, 158.429 237.927, 157.508 235.024 C 156.595 232.149, 159.509 226.305, 162.671 224.670 C 166.470 222.705, 172.519 215.119, 171.277 213.877 C 170.673 213.273, 169.300 214.403, 167.526 216.962 M 215.500 223.819 C 214.400 224.051, 212.712 224.792, 211.748 225.466 C 210.221 226.534, 211.438 227.402, 221.248 232.240 C 228.081 235.610, 232.627 237.340, 232.823 236.645 C 233.001 236.015, 233.551 234.600, 234.045 233.500 C 235.900 229.371, 235.553 228.864, 229.500 226.856 C 220.991 224.033, 217.787 223.338, 215.500 223.819 M 195.620 235.668 L 185.740 242.295 188.120 244.176 C 189.429 245.210, 191.308 246.521, 192.296 247.088 C 193.901 248.010, 193.960 247.908, 192.846 246.124 C 192.160 245.027, 191.291 244.320, 190.913 244.554 C 189.972 245.135, 187.863 242.470, 188.646 241.688 C 188.991 241.342, 190.450 241.878, 191.887 242.880 C 194.610 244.777, 203.335 248, 205.749 248 C 206.868 248, 217.807 240.944, 221.323 237.953 C 222.053 237.333, 207.867 228.969, 206.173 229.021 C 205.803 229.032, 201.054 232.023, 195.620 235.668 M 214.399 247.238 L 205.297 253.352 205.776 262.926 C 206.039 268.192, 206.396 272.662, 206.570 272.859 C 206.743 273.056, 210.727 270.806, 215.423 267.859 L 223.961 262.500 223.980 251.750 C 223.991 245.838, 223.887 241.028, 223.750 241.061 C 223.613 241.095, 219.404 243.874, 214.399 247.238 M 230 245.115 C 230 247.109, 230.433 248.024, 231.250 247.755 C 233.120 247.139, 233.345 243.346, 231.553 242.659 C 230.358 242.200, 230 242.767, 230 245.115 M 138 251.689 C 124.042 260.260, 124.440 259.539, 132.838 261.040 L 140.134 262.344 145.516 256.922 L 150.897 251.500 148.698 248.985 L 146.499 246.469 138 251.689 M 178.882 246.750 C 178.816 247.162, 178.828 247.871, 178.906 248.324 C 178.985 248.778, 178.569 248.852, 177.982 248.489 C 176.211 247.394, 167.757 254.963, 168.325 257.135 C 168.594 258.162, 168.405 258.751, 167.907 258.442 C 167.408 258.134, 167 258.359, 167 258.941 C 167 259.523, 168.942 260, 171.316 260 C 175.267 260, 175.807 259.683, 177.707 256.250 C 180.286 251.590, 181.580 246, 180.079 246 C 179.486 246, 178.947 246.338, 178.882 246.750 M 184.704 248.669 C 183.988 249.828, 185.657 252.676, 186.537 251.796 C 186.893 251.441, 186.754 250.383, 186.230 249.447 C 185.706 248.510, 185.019 248.160, 184.704 248.669 M 243.413 252.096 C 241.975 253.685, 240.829 254.003, 238.268 253.523 C 235.975 253.092, 234.817 253.313, 234.458 254.248 C 234.175 254.987, 234.068 261.954, 234.221 269.730 L 234.500 283.867 242.750 279.706 L 251 275.546 251 264.841 C 251 254.197, 250.984 254.125, 248.132 252.094 L 245.263 250.051 243.413 252.096 M 193.720 260.983 C 186.112 266.051, 186.444 264.735, 189.344 278.321 L 190.587 284.142 196.464 280.191 L 202.342 276.240 202.083 269.870 C 201.941 266.367, 201.526 261.918, 201.162 259.983 L 200.500 256.467 193.720 260.983 M 255 262.958 C 255 268.496, 255.164 268.976, 256.750 268.064 C 260.046 266.168, 263.501 263.044, 262.327 263.022 C 261.682 263.010, 259.769 261.615, 258.077 259.923 L 255 256.846 255 262.958 M 166.276 265.900 C 162.957 268.045, 159.917 270.325, 159.521 270.967 C 158.149 273.185, 160.037 273.348, 163.761 271.331 C 165.818 270.218, 170.053 268.764, 173.173 268.099 C 180.212 266.600, 182.435 264.496, 178.544 263.017 C 174.270 261.392, 172.669 261.768, 166.276 265.900 M 133.608 266.580 C 133.082 267.950, 134.446 272, 135.433 272 C 135.633 272, 137.725 270.904, 140.082 269.565 C 144.841 266.862, 145.194 267.274, 136.604 265.507 C 135.016 265.180, 134.006 265.542, 133.608 266.580 M 261.952 269.036 C 259.030 271.216, 256.270 273, 255.819 273 C 255.369 273, 255 278.465, 255 285.145 L 255 297.290 260.396 292.395 C 263.364 289.703, 267.077 286.375, 268.646 285 C 271.392 282.594, 271.488 282.207, 271.171 274.743 C 270.731 264.393, 269.334 263.528, 261.952 269.036 M 127.294 270.461 C 127.506 275.121, 128.750 276.077, 131.960 274.046 C 133.211 273.254, 133.156 272.830, 131.577 271.085 C 130.562 269.964, 129.348 269.285, 128.878 269.576 C 128.408 269.866, 128.273 269.451, 128.580 268.653 C 128.886 267.855, 128.676 266.918, 128.113 266.570 C 127.462 266.167, 127.164 267.584, 127.294 270.461 M 226.500 266.720 C 224.850 266.952, 220.206 269.247, 216.179 271.821 L 208.858 276.500 209.420 281.500 C 209.730 284.250, 209.987 289.361, 209.991 292.857 C 210.002 300.389, 209.540 300.405, 221.616 292.452 L 230 286.931 230 276.465 C 230 270.709, 229.887 266.067, 229.750 266.150 C 229.613 266.232, 228.150 266.489, 226.500 266.720 M 181.500 270 C 180.400 270.473, 177.515 270.891, 175.088 270.930 C 172.252 270.975, 169.105 271.920, 166.280 273.576 L 161.884 276.152 165.636 280.826 C 167.700 283.397, 170.787 287.091, 172.497 289.035 L 175.605 292.569 181.348 289.214 C 185.531 286.769, 186.954 285.403, 186.588 284.179 C 186.312 283.256, 185.571 279.462, 184.941 275.750 C 184.310 272.038, 183.728 269.032, 183.647 269.070 C 183.566 269.109, 182.600 269.527, 181.500 270 M 148.759 279.813 C 143.258 284.305, 143.018 284.695, 143.009 289.193 C 143.001 293.445, 143.526 294.506, 148.604 300.492 C 151.686 304.125, 154.625 306.958, 155.134 306.789 C 157.049 306.150, 170.992 295.463, 170.996 294.631 C 171.001 293.520, 155.965 274.979, 155.127 275.063 C 154.782 275.098, 151.917 277.235, 148.759 279.813 M 240.789 285.263 C 227.164 292.751, 227.844 291.696, 228.196 304.787 L 228.500 316.073 239.250 309.073 L 250 302.073 250 291.537 C 250 285.742, 249.662 281.006, 249.250 281.013 C 248.838 281.020, 245.030 282.932, 240.789 285.263 M 196.247 288.852 C 191.157 291.987, 185.863 295.683, 184.481 297.065 L 181.968 299.577 185.389 302.892 C 188.481 305.889, 189.196 306.143, 192.827 305.529 C 195.036 305.156, 198.904 303.544, 201.422 301.947 L 206 299.044 206 291.022 C 206 286.610, 205.887 283.034, 205.750 283.075 C 205.613 283.117, 201.336 285.716, 196.247 288.852 M 265.646 293.628 C 259.564 298.881, 257.068 301.672, 257.412 302.833 C 257.683 303.750, 258.203 305.747, 258.566 307.272 L 259.228 310.043 261.061 307.929 C 262.875 305.838, 262.899 305.878, 263.258 311.658 C 263.568 316.638, 263.650 316.283, 263.811 309.250 C 264.035 299.486, 264.227 299.219, 275.988 292.385 C 280.417 289.812, 283.919 287.611, 283.770 287.494 C 283.622 287.377, 281.447 287.014, 278.937 286.686 C 274.407 286.094, 274.310 286.144, 265.646 293.628 M 129.250 293.334 C 123.607 296.127, 123.004 296.722, 123.042 299.464 C 123.065 301.134, 123.856 303.850, 124.799 305.500 C 128.363 311.733, 135.396 322, 136.102 322 C 137.356 322, 151 310.772, 151 309.740 C 151 309.204, 147.922 305.330, 144.160 301.132 C 140.398 296.935, 136.911 292.767, 136.410 291.870 C 135.599 290.418, 134.820 290.577, 129.250 293.334 M 279.500 294.823 C 269.899 300.173, 270.462 299.367, 270.838 307.242 C 271.109 312.913, 270.861 314.498, 269.588 315.210 C 268.690 315.713, 268 317.397, 268 319.085 C 268 322.298, 268.982 322.197, 273.500 318.518 C 275.446 316.934, 275.437 316.921, 273.164 318.026 C 270.746 319.202, 268.925 318.588, 270.567 317.149 C 271.626 316.220, 279.203 313.477, 283.079 312.619 C 285.623 312.055, 285.662 311.909, 285.883 302.024 C 286.006 296.511, 285.745 292.008, 285.303 292.018 C 284.861 292.028, 282.250 293.290, 279.500 294.823 M 213.036 303.057 C 207.281 306.891, 202.132 310.468, 201.593 311.007 C 200.953 311.647, 201.582 312.998, 203.405 314.900 C 205.901 317.506, 206.159 318.405, 205.848 323.408 C 205.657 326.485, 205.643 329.002, 205.818 329.001 C 205.994 329.001, 210.154 326.413, 215.064 323.250 L 223.990 317.500 223.995 306.750 C 223.998 300.837, 223.887 296.019, 223.750 296.043 C 223.613 296.067, 218.791 299.223, 213.036 303.057 M 169.466 301.307 C 166.697 303.613, 162.921 306.644, 161.076 308.043 L 157.720 310.586 165.610 318.870 L 173.500 327.153 179 323.279 C 184.338 319.519, 184.500 319.267, 184.500 314.701 C 184.500 312.114, 184.838 309.997, 185.250 309.998 C 185.662 309.999, 186 310.927, 186 312.059 C 186 313.191, 186.419 313.859, 186.931 313.543 C 187.443 313.226, 188.144 313.425, 188.490 313.984 C 188.835 314.543, 188.416 315, 187.559 315 C 186.702 315, 186 315.745, 186 316.655 C 186 318.150, 186.190 318.138, 187.974 316.523 C 189.920 314.763, 189.921 314.698, 188.043 312.118 C 186.995 310.678, 183.519 306.713, 180.319 303.307 L 174.500 297.113 169.466 301.307 M 242 312.039 C 236.225 315.854, 232.255 318.980, 233.179 318.987 C 236.969 319.016, 238 321.724, 238 331.655 C 238 336.886, 238.362 341.017, 238.805 340.833 C 242.305 339.385, 262.897 325.284, 262.658 324.500 C 262.490 323.950, 261.148 322.913, 259.676 322.195 C 257.735 321.249, 257 320.132, 257 318.127 C 257 314.708, 254.181 304.981, 253.211 305.052 C 252.820 305.080, 247.775 308.224, 242 312.039 M 190.895 309.219 C 192.990 311.597, 195 312.113, 195 310.274 C 195 309.940, 194.696 309.971, 194.324 310.342 C 193.952 310.714, 192.490 310.002, 191.074 308.759 L 188.500 306.500 190.895 309.219 M 116.791 312.362 C 115.283 313.508, 115.755 313.872, 120.791 315.459 C 123.931 316.448, 127.175 317.492, 128 317.779 C 128.825 318.066, 127.949 316.658, 126.054 314.650 C 122.462 310.845, 119.689 310.160, 116.791 312.362 M 284.532 317.434 L 274.563 322.832 274.849 327.166 C 275.254 333.319, 276.793 344.127, 277.342 344.676 C 277.597 344.931, 282.148 342.295, 287.456 338.819 L 297.107 332.500 296.553 328.110 C 296.249 325.696, 296 321.084, 296 317.860 C 296 314.637, 295.663 312.008, 295.250 312.019 C 294.837 312.029, 290.014 314.466, 284.532 317.434 M 147.500 318.602 C 143.650 321.673, 140.500 324.707, 140.500 325.343 C 140.500 326.567, 147.648 331.625, 155.995 336.308 L 161 339.115 160.962 329.808 C 160.926 320.796, 160.823 320.381, 157.712 316.759 L 154.500 313.017 147.500 318.602 M 195 315.795 C 195 316.231, 192.731 318.320, 189.957 320.435 L 184.915 324.280 186.957 326.455 C 188.573 328.174, 189.003 329.974, 189.015 335.064 C 189.038 344.640, 189.558 344.942, 197.446 339.960 C 203.313 336.255, 203.971 335.542, 202.699 334.270 C 201.604 333.175, 201.374 331.211, 201.767 326.311 C 202.268 320.068, 202.173 319.711, 199.395 317.439 C 196.370 314.966, 195 314.453, 195 315.795 M 112.015 326.842 C 112.024 332.154, 112.361 336.979, 112.765 337.565 C 113.431 338.531, 127.247 347.064, 132.750 349.907 L 135 351.070 135 339.545 L 135 328.020 129.638 324.460 C 126.689 322.502, 121.514 320.064, 118.138 319.042 L 112 317.183 112.015 326.842 M 217.750 326.237 C 212.938 329.107, 209 331.814, 209 332.253 C 209 333.247, 212.487 331.382, 221.500 325.568 C 231.109 319.369, 228.480 319.838, 217.750 326.237 M 222.258 329.322 L 214.017 334.500 214.008 346.238 L 214 357.975 219.750 354.330 C 222.912 352.324, 227.412 349.383, 229.750 347.794 L 234 344.904 234 334.452 C 234 321.837, 234.101 321.881, 222.258 329.322 M 165.011 330.054 C 165.034 341.242, 165.608 342.531, 172.497 346.850 L 178.742 350.766 181.967 348.724 L 185.192 346.682 184.846 338.494 C 184.638 333.572, 183.962 329.658, 183.152 328.682 C 181.915 327.192, 181.488 327.220, 177.942 329.030 C 172.833 331.636, 172.164 331.551, 168.298 327.804 L 165 324.608 165.011 330.054 M 259.768 332.314 L 250.035 338.500 250.018 348.715 C 249.993 362.802, 250.551 363.046, 263.976 354.819 C 271.141 350.429, 273.909 348.204, 273.507 347.159 C 273.196 346.348, 272.422 341.256, 271.787 335.843 C 271.152 330.429, 270.378 326.029, 270.066 326.064 C 269.755 326.099, 265.120 328.912, 259.768 332.314 M 85.287 335.273 C 81.319 337.598, 78.075 339.725, 78.077 340 C 78.079 340.275, 82.894 343.527, 88.776 347.227 L 99.470 353.955 103.735 349.769 C 106.977 346.588, 108 344.823, 108 342.416 C 108 339.506, 107.409 338.932, 100.750 335.374 C 96.763 333.243, 93.275 331.398, 93 331.273 C 92.725 331.148, 89.254 332.948, 85.287 335.273 M 139 342.226 L 139 353.763 142.250 356.178 C 144.919 358.161, 156.615 365.498, 161.763 368.418 C 163.029 369.136, 162.942 364.672, 161.389 349.276 L 160.862 344.051 152.542 339.026 C 147.966 336.262, 143.870 334, 143.440 334 C 143.010 334, 141.835 333.255, 140.829 332.345 C 139.067 330.751, 139 331.113, 139 342.226 M 314.043 334.749 C 310.495 336.812, 307.684 338.837, 307.796 339.250 C 307.908 339.663, 308 342.624, 308 345.832 C 308 351.640, 308.015 351.669, 311.545 352.752 C 314.930 353.791, 315.541 353.561, 325.030 347.670 C 330.497 344.277, 334.967 341.275, 334.964 341 C 334.960 340.601, 322.983 332.240, 320.997 331.249 C 320.721 331.111, 317.591 332.686, 314.043 334.749 M 290.085 341.683 L 281.778 347.365 282.389 351.822 C 282.725 354.274, 283 359.807, 283 364.119 L 283 371.959 293.469 365.230 L 303.937 358.500 303.343 349 C 302.795 340.241, 301.392 336, 299.040 336 C 298.683 336, 294.653 338.557, 290.085 341.683 M 198.971 344.108 C 193.762 347.467, 189.445 350.279, 189.379 350.358 C 189.312 350.436, 188.942 355.781, 188.557 362.236 L 187.857 373.971 194.679 369.713 C 209.376 360.538, 208.690 361.242, 209.379 354.647 C 210.237 346.441, 210.157 338, 209.221 338 C 208.793 338, 204.180 340.748, 198.971 344.108 M 241.241 344.777 L 237.982 347.500 237.991 359.259 L 238 371.018 241.405 368.786 C 243.879 367.165, 244.970 365.589, 245.394 363.027 C 246.241 357.910, 246.132 341.995, 245.250 342.027 C 244.838 342.042, 243.033 343.279, 241.241 344.777 M 76 355.443 C 76 366.083, 75.846 366.994, 73.810 368.420 C 72.606 369.264, 71.819 370.091, 72.060 370.258 C 81.564 376.834, 95.074 385, 96.450 385 C 96.753 385, 97 378.693, 97 370.984 L 97 356.969 86.976 350.484 C 81.462 346.918, 76.737 344, 76.476 344 C 76.214 344, 76 349.149, 76 355.443 M 110.055 350.713 L 103.921 356.568 116.211 363.681 C 124.886 368.702, 128.941 370.540, 130 369.930 C 130.825 369.455, 133.662 367.139, 136.305 364.783 L 141.110 360.500 130.159 353.259 C 124.136 349.276, 118.529 345.757, 117.699 345.438 C 116.734 345.068, 113.971 346.975, 110.055 350.713 M 334.441 346.555 C 332.577 348.049, 332.589 348.067, 334.750 347.020 C 335.988 346.420, 337 345.720, 337 345.465 C 337 344.700, 336.481 344.921, 334.441 346.555 M 337 356 C 337 360.950, 336.636 365, 336.191 365 C 335.746 365, 334.509 365.697, 333.441 366.548 C 331.727 367.916, 331.879 367.913, 334.750 366.523 L 338 364.949 338 355.974 C 338 351.038, 337.775 347, 337.500 347 C 337.225 347, 337 351.050, 337 356 M 166.559 359.250 C 167.314 372.008, 166.898 371.332, 177.250 376.594 L 184 380.025 184 373.663 C 184 370.165, 184.300 363.758, 184.666 359.427 L 185.331 351.553 182.701 353.276 C 179.242 355.543, 179.301 355.553, 172.570 351.500 C 169.373 349.575, 166.563 348, 166.325 348 C 166.087 348, 166.192 353.063, 166.559 359.250 M 329.441 349.555 C 327.577 351.049, 327.589 351.067, 329.750 350.020 C 330.988 349.420, 332 348.720, 332 348.465 C 332 347.700, 331.481 347.921, 329.441 349.555 M 230.500 352.051 C 228.850 353.172, 224.463 355.889, 220.750 358.089 L 214 362.088 214 374.544 C 214 381.395, 214.266 387, 214.592 387 C 214.917 387, 219.406 384.188, 224.566 380.750 L 233.948 374.500 233.974 362.250 C 233.988 355.512, 233.887 350.003, 233.750 350.007 C 233.613 350.010, 232.150 350.930, 230.500 352.051 M 267.250 357.149 L 258 363.212 258 375.165 C 258 384.455, 258.278 386.953, 259.250 386.378 C 259.938 385.971, 264.438 383.218, 269.250 380.259 L 278 374.879 278 362.939 C 278 356.373, 277.663 351.019, 277.250 351.043 C 276.837 351.067, 272.337 353.814, 267.250 357.149 M 308.916 359.820 C 308.045 360.194, 304.107 362.717, 300.166 365.427 L 293 370.353 293 382.182 L 293 394.012 301.250 388.684 C 305.788 385.754, 311.207 382.264, 313.294 380.928 C 316.585 378.823, 317.016 378.118, 316.544 375.625 C 316.245 374.044, 316 369.656, 316 365.875 C 316 359.025, 315.990 359, 313.250 359.070 C 311.738 359.109, 309.787 359.446, 308.916 359.820 M 373.257 368.843 C 365.424 374.154, 355.122 380.750, 350.365 383.500 C 337.990 390.654, 312.549 406.884, 312.228 407.830 C 312.079 408.270, 313.949 410.060, 316.383 411.809 L 320.809 414.987 332.581 407.994 C 339.056 404.147, 344.684 401, 345.089 401 C 345.493 401, 346.132 399.087, 346.508 396.750 C 347.485 390.683, 349.050 388.724, 357.235 383.321 C 365.556 377.829, 370.347 376.756, 378.658 378.527 C 381.307 379.092, 382.792 378.537, 387.882 375.080 C 391.219 372.814, 395.310 370.688, 396.974 370.355 C 402.123 369.325, 400.563 366.058, 392.822 361.659 C 390.249 360.196, 387.999 359.042, 387.822 359.093 C 387.645 359.144, 381.091 363.531, 373.257 368.843 M 101 372.800 C 101 381.422, 100.608 385.992, 99.800 386.800 C 99.140 387.460, 99.038 388, 99.574 388 C 100.110 388, 104.102 390.025, 108.445 392.500 C 112.788 394.975, 117.149 397, 118.136 397 C 121.180 397, 122.313 393.070, 122.409 382.176 L 122.500 371.815 112.500 365.954 C 107 362.730, 102.162 360.072, 101.750 360.046 C 101.338 360.021, 101 365.760, 101 372.800 M 138.319 368.306 C 134.920 371.163, 132.107 373.741, 132.069 374.036 C 131.974 374.771, 149.078 385.077, 156.750 388.908 L 163 392.029 163 387.926 L 163 383.824 159.090 384.485 C 155.722 385.054, 155.092 384.864, 154.535 383.110 C 153.719 380.539, 155.556 377, 157.706 377 C 158.606 377, 160.165 377.745, 161.171 378.655 C 162.909 380.228, 163 380.140, 162.993 376.905 C 162.987 373.676, 162.536 373.242, 154.264 368.500 C 149.466 365.750, 145.306 363.413, 145.020 363.306 C 144.734 363.199, 141.719 365.449, 138.319 368.306 M 205.750 367.573 C 203.688 368.924, 202 370.274, 202 370.574 C 202 370.873, 202.520 370.797, 203.155 370.405 C 203.876 369.959, 204.037 370.131, 203.585 370.862 C 203.187 371.506, 202.452 371.779, 201.952 371.470 C 200.865 370.798, 196.581 372.915, 197.390 373.724 C 197.699 374.032, 198.750 373.658, 199.726 372.893 C 201.349 371.619, 201.380 371.653, 200.090 373.296 C 199.314 374.283, 198.029 374.841, 197.234 374.536 C 196.440 374.231, 194.098 375.225, 192.032 376.745 C 188.840 379.092, 188.402 379.855, 189.124 381.805 C 189.665 383.269, 189.616 383.880, 188.987 383.492 C 188.362 383.105, 188 386.752, 188 393.441 C 188 399.248, 188.338 403.998, 188.750 403.995 C 189.162 403.992, 190.850 402.830, 192.500 401.412 L 195.500 398.835 192.250 400.985 L 189 403.136 189.015 394.318 C 189.025 388.567, 189.350 386.005, 189.949 386.952 C 190.455 387.751, 190.693 388.688, 190.478 389.036 C 190.263 389.383, 190.743 389.667, 191.544 389.667 C 192.345 389.667, 193 389.344, 193 388.950 C 193 388.556, 193.945 387.986, 195.101 387.684 C 196.257 387.381, 196.905 386.655, 196.542 386.067 C 196.179 385.480, 196.327 385, 196.871 385 C 197.416 385, 198.005 384.082, 198.180 382.960 C 198.356 381.839, 198.755 381.051, 199.066 381.210 C 199.377 381.370, 200.772 380.270, 202.166 378.766 C 204.721 376.009, 207.040 376.042, 204.749 378.802 C 203.703 380.063, 203.852 380.182, 205.725 379.587 C 207.504 379.023, 208.030 379.335, 208.428 381.193 C 208.700 382.462, 209.112 384.400, 209.345 385.500 C 209.578 386.600, 209.820 382.438, 209.884 376.250 C 209.948 370.063, 209.887 365.026, 209.750 365.059 C 209.613 365.091, 207.813 366.223, 205.750 367.573 M 242.452 372.451 L 233.699 378.902 233.237 391.549 L 232.775 404.196 243.387 397.076 L 254 389.955 254 377.978 C 254 368.389, 253.721 366, 252.603 366 C 251.834 366, 247.267 368.903, 242.452 372.451 M 427.583 372.643 C 426.732 374.862, 426.861 374.923, 432.848 375.135 C 439.906 375.385, 441.535 373.624, 435.622 372.135 C 429.601 370.619, 428.329 370.699, 427.583 372.643 M 278.274 379.278 L 268.048 385.500 268.024 397.333 C 268.011 403.842, 268.351 409.017, 268.781 408.833 C 269.211 408.650, 273.919 405.800, 279.245 402.500 L 288.928 396.500 288.964 384.750 C 288.984 378.288, 288.887 373.012, 288.750 373.028 C 288.613 373.043, 283.898 375.855, 278.274 379.278 M 393 375.109 C 387.666 378.311, 385 381.121, 385 383.539 C 385 386.873, 388.677 390.836, 392.804 391.949 C 394.837 392.498, 400.325 395.153, 405 397.849 C 409.675 400.546, 413.586 402.684, 413.690 402.602 C 413.795 402.520, 413.966 397.525, 414.069 391.502 L 414.257 380.552 406.879 376.790 C 402.820 374.721, 398.825 373.023, 398 373.018 C 397.175 373.012, 394.925 373.953, 393 375.109 M 71.989 383.719 C 71.983 388.549, 71.731 394.075, 71.430 396 C 70.888 399.460, 70.966 399.548, 78.291 403.750 C 82.366 406.087, 85.992 408, 86.350 408 C 86.707 408, 87 402.708, 87 396.241 C 87 386.124, 86.755 384.328, 85.250 383.388 C 84.287 382.787, 80.912 380.640, 77.750 378.617 L 72 374.939 71.989 383.719 M 442 377 C 442 378.111, 442.667 379, 443.500 379 C 445.156 379, 445.257 379.439, 444.364 382.771 C 443.851 384.688, 443.502 384.849, 442.128 383.801 C 441.233 383.119, 441.618 383.813, 442.984 385.344 C 445.052 387.661, 445.530 389.369, 445.843 395.555 C 446.362 405.846, 448 403.862, 448 392.941 C 448 385.660, 447.721 384, 446.500 384 C 444.349 384, 444.642 382.579, 447.492 379.191 L 449.985 376.229 447.742 375.628 C 443.630 374.526, 442 374.916, 442 377 M 167 384.402 C 167 393.967, 166.510 393.292, 178.250 399.907 L 184 403.147 183.935 393.823 L 183.871 384.500 175.435 380.220 L 167 375.939 167 384.402 M 127 382.246 C 127 393.326, 125.862 399.909, 123.836 400.552 C 122.435 400.997, 124.327 402.338, 131.226 405.792 C 136.327 408.346, 140.738 410.566, 141.029 410.727 C 141.320 410.888, 142.332 409.708, 143.279 408.105 C 144.563 405.930, 145 402.911, 145 396.199 L 145 387.207 137.666 382.636 C 126.726 375.817, 127 375.827, 127 382.246 M 420.899 380.648 C 418.043 383.964, 417.813 385.990, 420.281 386.087 C 421.502 386.135, 426.470 386.477, 431.322 386.847 L 440.144 387.521 437.322 385.287 C 435.770 384.059, 433.703 382.357, 432.728 381.505 C 431.753 380.653, 429.052 379.695, 426.725 379.376 C 423.370 378.916, 422.165 379.179, 420.899 380.648 M 53.750 383.042 C 51.138 384.671, 49 386.189, 49 386.416 C 49 387.089, 58.268 392.066, 58.705 391.628 C 58.926 391.407, 58.970 388.719, 58.803 385.653 L 58.500 380.079 53.750 383.042 M 62.305 380.812 C 60.812 381.734, 60.264 393.255, 61.690 393.730 C 62.354 393.951, 62.939 391.501, 63.229 387.294 C 63.761 379.549, 63.809 379.882, 62.305 380.812 M 379.500 382 C 382.252 383.183, 383.231 383.183, 382.500 382 C 382.160 381.450, 380.896 381.032, 379.691 381.070 C 377.579 381.138, 377.572 381.171, 379.500 382 M 365.437 383.242 C 362.821 384.635, 359 388.156, 359 389.174 C 359 389.628, 360.125 390, 361.500 390 C 362.875 390, 364 390.450, 364 391 C 364 392.873, 366.493 391.976, 370.346 388.716 L 374.192 385.462 370.783 383.836 C 368.264 382.635, 366.869 382.480, 365.437 383.242 M 65.328 389.500 C 65.333 393.350, 65.513 394.802, 65.730 392.728 C 65.946 390.653, 65.943 387.503, 65.722 385.728 C 65.501 383.952, 65.324 385.650, 65.328 389.500 M 226.675 383.658 C 226.313 384.020, 226.420 384.807, 226.913 385.408 C 227.405 386.009, 228.015 387.625, 228.268 389 C 228.567 390.629, 228.775 390.019, 228.864 387.250 C 228.991 383.294, 228.252 382.081, 226.675 383.658 M 90.615 388.560 C 90.277 389.442, 90 394.557, 90 399.927 C 90 407.990, 90.305 409.950, 91.750 411.181 C 93.645 412.796, 109.557 422, 110.453 422 C 110.754 422, 111 416.637, 111 410.082 L 111 398.163 107.750 396.214 C 105.963 395.142, 101.514 392.620, 97.865 390.611 C 92.211 387.497, 91.140 387.194, 90.615 388.560 M 220.125 389.182 C 218.269 390.110, 214.132 392.486, 210.933 394.460 L 205.117 398.050 204.808 410.027 C 204.639 416.614, 204.581 422.003, 204.680 422.002 C 204.779 422.001, 209.646 419.024, 215.496 415.386 L 226.132 408.773 225.429 399.636 C 224.480 387.317, 224.353 387.067, 220.125 389.182 M 261.212 388.635 C 259.021 390.422, 258.937 391.020, 259.212 402.865 L 259.500 415.230 261.788 413.365 C 263.979 411.578, 264.063 410.980, 263.788 399.135 L 263.500 386.770 261.212 388.635 M 207.237 390.760 C 206.069 393.251, 206.097 393.332, 207.603 391.826 C 208.499 390.930, 209.067 389.717, 208.866 389.131 C 208.665 388.545, 207.931 389.278, 207.237 390.760 M 148.885 393.750 C 149.105 396.363, 149.505 397.825, 149.773 397 C 150.041 396.175, 150.984 394.672, 151.867 393.660 C 153.351 391.960, 153.326 391.712, 151.546 390.410 C 148.667 388.305, 148.450 388.577, 148.885 393.750 M 380.564 390.293 C 380.940 391.279, 381.499 391.834, 381.807 391.526 C 382.115 391.219, 381.808 390.412, 381.124 389.733 C 380.136 388.753, 380.022 388.868, 380.564 390.293 M 418 396.280 C 418 401.346, 418.285 402.262, 420 402.710 C 421.100 402.998, 422 403.603, 422 404.055 C 422 404.859, 425.140 405.396, 435.750 406.406 L 441 406.906 441 399.525 L 441 392.144 435.750 391.600 C 432.863 391.300, 427.688 390.902, 424.250 390.714 L 418 390.372 418 396.280 M 359.377 394.752 C 359.309 396.814, 359.454 397.481, 359.699 396.235 C 359.943 394.990, 360.604 394.255, 361.168 394.604 C 361.757 394.968, 362.045 394.479, 361.846 393.451 C 361.197 390.101, 359.500 390.995, 359.377 394.752 M 373.385 393.194 C 371.798 394.401, 368.874 396.819, 366.887 398.568 C 364.900 400.316, 362.476 402.194, 361.501 402.740 C 360.099 403.524, 359.866 404.472, 360.389 407.260 C 360.967 410.343, 361.507 410.872, 364.671 411.466 C 369.023 412.283, 370.965 410.364, 367.934 408.241 C 364.666 405.952, 365.507 402.645, 370 400.120 C 372.200 398.884, 374 397.649, 374 397.377 C 374 397.105, 373.480 397.203, 372.845 397.595 C 372.107 398.052, 371.963 397.868, 372.447 397.086 C 372.862 396.414, 373.931 396.143, 374.821 396.485 C 375.711 396.826, 376.111 396.778, 375.710 396.377 C 375.310 395.976, 375.964 394.602, 377.165 393.324 C 380.087 390.214, 377.424 390.122, 373.385 393.194 M 67.638 393.500 C 67.322 394.325, 67.499 395, 68.031 395 C 68.564 395, 69 394.325, 69 393.500 C 69 392.675, 68.823 392, 68.607 392 C 68.391 392, 67.955 392.675, 67.638 393.500 M 229.252 396.500 C 229.263 398.700, 229.468 399.482, 229.707 398.238 C 229.946 396.994, 229.937 395.194, 229.687 394.238 C 229.437 393.282, 229.241 394.300, 229.252 396.500 M 155.723 395.811 C 154.225 396.720, 153.017 397.697, 153.038 397.982 C 153.086 398.636, 160.102 403.517, 166 406.999 L 170.500 409.655 170.379 405.159 C 170.247 400.278, 168.558 398.384, 161.827 395.572 C 158.834 394.322, 158.132 394.349, 155.723 395.811 M 246.750 399.175 L 239 404.197 239 415.598 C 239 421.869, 239.281 427, 239.624 427 C 239.967 427, 243.781 424.863, 248.098 422.250 L 255.948 417.500 255.974 405.750 C 255.988 399.288, 255.662 394.034, 255.250 394.076 C 254.838 394.118, 251.012 396.412, 246.750 399.175 M 380.079 395.583 C 380.127 396.748, 380.364 396.985, 380.683 396.188 C 380.972 395.466, 380.936 394.603, 380.604 394.271 C 380.272 393.939, 380.036 394.529, 380.079 395.583 M 383.150 395.816 C 383.067 397.089, 382.534 399.002, 381.965 400.066 C 381.242 401.416, 381.252 402, 381.996 402 C 383.504 402, 384.221 399.649, 383.724 396.334 C 383.378 394.022, 383.272 393.927, 383.150 395.816 M 390 394.832 C 390 395.290, 393.424 398.255, 397.610 401.420 C 402.641 405.226, 405.860 407.008, 407.110 406.682 C 408.149 406.410, 409 406.567, 409 407.032 C 409 408.723, 405.933 421.560, 405.011 423.728 L 404.063 425.956 399.449 423.978 C 394.196 421.727, 392.570 421.496, 393.590 423.146 C 394.089 423.953, 393.509 424.094, 391.625 423.621 C 389.155 423.001, 389.046 423.101, 390.191 424.935 C 391.105 426.397, 391.659 426.601, 392.295 425.710 C 392.807 424.994, 392.954 426.293, 392.655 428.894 C 392.378 431.311, 391.621 433.616, 390.972 434.017 C 389.538 434.904, 401.199 439, 405.156 439 C 408.125 439, 408.429 438.349, 410.992 426.500 C 411.587 423.750, 412.301 420.746, 412.580 419.825 C 412.933 418.661, 412.412 418.051, 410.872 417.825 C 407.694 417.359, 407.244 415, 410.333 415 C 411.708 415, 413.060 415.563, 413.338 416.250 C 413.615 416.938, 413.878 415.128, 413.921 412.230 L 414 406.960 407.250 402.611 C 396.211 395.500, 390 392.699, 390 394.832 M 199.507 395.989 C 199.157 396.555, 199.558 396.723, 200.448 396.382 C 202.180 395.717, 202.497 395, 201.059 395 C 200.541 395, 199.843 395.445, 199.507 395.989 M 359.079 400.583 C 359.127 401.748, 359.364 401.985, 359.683 401.188 C 359.972 400.466, 359.936 399.603, 359.604 399.271 C 359.272 398.939, 359.036 399.529, 359.079 400.583 M 375.275 401.931 C 374.267 403.545, 374.400 403.730, 376.310 403.380 C 377.514 403.159, 377.938 403.245, 377.250 403.572 C 376.563 403.899, 376 404.854, 376 405.694 C 376 406.775, 376.562 406.532, 377.924 404.861 C 379.218 403.273, 379.464 402.369, 378.674 402.100 C 378.028 401.880, 377.260 401.336, 376.966 400.890 C 376.672 400.444, 375.911 400.913, 375.275 401.931 M 199 402.534 C 198.137 403.598, 198.031 404.065, 198.750 403.633 C 200.747 402.433, 200.277 407.077, 198.250 408.563 C 196.804 409.624, 196.205 409.582, 194.803 408.316 C 193.274 406.937, 192.714 406.970, 189.170 408.643 L 185.235 410.500 187.266 416 C 188.383 419.025, 189.568 421.612, 189.898 421.749 C 190.229 421.886, 190.340 424.303, 190.145 427.119 L 189.791 432.240 194.380 429.082 C 196.905 427.346, 199.442 425.043, 200.019 423.965 C 200.620 422.842, 200.947 417.454, 200.784 411.344 C 200.527 401.689, 200.359 400.858, 199 402.534 M 230 402.441 C 230 403.234, 230.408 404.134, 230.907 404.442 C 231.405 404.751, 231.578 404.102, 231.290 403.001 C 230.679 400.666, 230 400.371, 230 402.441 M 387.543 407.130 C 385.649 413.883, 385.888 415.476, 388.915 416.268 C 390.625 416.715, 391.021 416.334, 391.118 414.156 C 391.234 411.554, 391.250 411.561, 391.876 414.488 C 392.598 417.861, 396 419.352, 396 416.296 C 396 415.278, 396.697 413.450, 397.548 412.234 C 399.018 410.136, 398.909 409.859, 395.375 406.762 C 393.329 404.968, 391.110 402.959, 390.445 402.297 C 389.502 401.358, 388.866 402.418, 387.543 407.130 M 114.027 413.250 L 114.054 424.500 124.557 430.719 L 135.059 436.939 134.780 424.284 L 134.500 411.630 125 406.874 C 119.775 404.258, 115.162 402.091, 114.750 402.059 C 114.338 402.026, 114.012 407.063, 114.027 413.250 M 152.217 410.283 C 151.094 413.703, 150.249 416.561, 150.338 416.635 C 150.427 416.709, 153.875 418.819, 158 421.325 L 165.500 425.881 165.797 418.773 C 166.127 410.878, 166.070 410.778, 158.879 406.692 L 154.258 404.067 152.217 410.283 M 224.757 413.950 C 219.398 417.552, 214.402 421.175, 213.655 422 C 212.626 423.136, 212.410 425.991, 212.766 433.776 L 213.235 444.052 217.867 441.364 C 220.415 439.886, 224.975 437.008, 228 434.968 C 233.017 431.586, 233.610 430.785, 234.750 425.851 C 236.121 419.919, 236.441 408.329, 235.250 407.759 C 234.838 407.561, 230.116 410.347, 224.757 413.950 M 418.232 412 C 418.232 413.925, 418.438 414.712, 418.689 413.750 C 418.941 412.788, 418.941 411.212, 418.689 410.250 C 418.438 409.288, 418.232 410.075, 418.232 412 M 175.500 414.260 C 172.750 415.409, 170.432 416.383, 170.349 416.424 C 170.265 416.466, 169.913 419.425, 169.565 423 C 168.960 429.217, 169.047 429.582, 171.577 431.380 C 173.032 432.414, 175.786 433.613, 177.697 434.044 C 182.623 435.155, 185.005 432.608, 184.985 426.250 C 184.968 421.018, 182.827 412.727, 181.405 412.387 C 180.907 412.268, 178.250 413.111, 175.500 414.260 M 369 414.117 C 369 414.768, 367.959 415.034, 366.500 414.755 C 364.369 414.348, 364 414.649, 364 416.794 C 364 419.169, 364.102 419.217, 365.831 417.653 C 366.838 416.741, 367.868 416.201, 368.119 416.452 C 368.370 416.704, 369.125 416.030, 369.796 414.955 C 370.529 413.781, 370.614 413, 370.008 413 C 369.454 413, 369 413.502, 369 414.117 M 141 416.302 C 141.825 417.066, 144.300 418.705, 146.500 419.945 C 150.248 422.055, 150.342 422.065, 148 420.095 C 144.991 417.565, 138.659 414.134, 141 416.302 M 403.116 415.857 C 403.052 416.603, 402.358 416.968, 401.573 416.666 C 400.788 416.365, 399.612 416.763, 398.959 417.549 C 398 418.705, 398.225 419.151, 400.136 419.868 C 402.802 420.870, 404.457 419.167, 403.683 416.219 C 403.426 415.238, 403.182 415.083, 403.116 415.857 M 139 428.091 L 139 439.025 144.405 442.482 C 147.377 444.384, 152.102 447.291, 154.905 448.944 L 160 451.948 159.985 439.224 C 159.976 432.226, 159.615 427.058, 159.181 427.741 C 158.608 428.644, 155.756 427.373, 148.697 423.070 L 139 417.158 139 428.091 M 382.733 425.009 C 381.054 431.671, 382.074 433.879, 385.023 429.970 C 387.712 426.404, 389.212 420.754, 387.721 419.806 C 385.163 418.181, 384.199 419.186, 382.733 425.009 M 273.500 431.262 C 264.700 436.895, 251.122 445.488, 243.327 450.356 C 235.532 455.224, 228.220 460.078, 227.077 461.143 C 225.221 462.872, 225 464.231, 225 473.917 C 225 481.397, 225.387 485.060, 226.250 485.738 C 226.938 486.278, 232 489.090, 237.500 491.986 L 247.500 497.251 268.415 484.625 C 279.919 477.681, 289.872 472, 290.533 472 C 291.805 472, 309.868 482.678, 323.785 491.655 C 328.341 494.595, 332.391 496.973, 332.785 496.939 C 333.178 496.906, 337.999 494.292, 343.498 491.130 C 349.614 487.614, 353.635 484.657, 353.855 483.514 C 354.053 482.487, 353.895 476.952, 353.504 471.214 L 352.793 460.783 343.825 455.141 C 338.893 452.039, 324.981 443.087, 312.910 435.250 C 300.839 427.413, 290.634 421.004, 290.232 421.010 C 289.829 421.015, 282.300 425.628, 273.500 431.262 M 152.500 423.518 C 153.600 424.414, 155.400 425.588, 156.500 426.128 L 158.500 427.110 156.500 425.482 C 155.400 424.586, 153.600 423.412, 152.500 422.872 L 150.500 421.890 152.500 423.518 M 197.416 431.829 L 187.500 438.660 187.626 448.372 C 187.695 453.715, 188.012 458.345, 188.329 458.662 C 188.646 458.979, 193.400 456.461, 198.894 453.066 L 208.882 446.893 208.303 436.196 C 207.985 430.313, 207.636 425.387, 207.529 425.249 C 207.421 425.112, 202.870 428.073, 197.416 431.829 M 283.133 429.917 C 279.632 432.071, 276.342 434.258, 275.824 434.776 C 275.234 435.366, 277.726 437.492, 282.491 440.462 L 290.102 445.205 297.672 440.205 L 305.243 435.205 298.382 430.603 C 294.609 428.071, 291.067 426, 290.511 426.001 C 289.955 426.001, 286.635 427.763, 283.133 429.917 M 164.628 435.698 C 164.283 438.217, 164 443.498, 164 447.432 L 164 454.585 172.035 459.779 C 179.020 464.294, 180.328 464.812, 182.035 463.746 C 184.175 462.409, 184.606 456.689, 183.352 446.250 C 182.771 441.410, 182.516 441, 180.096 441 C 178.441 441, 175.215 439.175, 171.363 436.058 L 165.256 431.116 164.628 435.698 M 260.809 443.828 C 256.028 446.948, 252.107 449.725, 252.094 450 C 252.043 451.091, 266.363 459, 268.389 459 C 270.197 459, 283.608 451.535, 286.323 449.017 C 287.170 448.232, 272.293 437.952, 270.500 438.083 C 269.950 438.124, 265.589 440.709, 260.809 443.828 M 300.235 443.281 L 292.971 448.432 296.735 450.721 C 298.806 451.980, 303.200 454.403, 306.500 456.105 L 312.500 459.201 319.750 454.971 C 323.738 452.645, 327 450.439, 327 450.069 C 327 449.213, 309.577 437.978, 308.387 438.066 C 307.899 438.102, 304.231 440.449, 300.235 443.281 M 240.687 456.946 C 236.397 459.605, 232.669 461.997, 232.404 462.262 C 231.752 462.914, 246.810 472.245, 247.842 471.829 C 250.260 470.855, 264 462.557, 263.999 462.072 C 263.998 461.757, 261.861 460.273, 259.249 458.773 C 256.637 457.273, 253.147 455.161, 251.494 454.079 L 248.488 452.112 240.687 456.946 M 280.688 457.196 L 273.876 461.310 274.149 468.627 L 274.421 475.943 278.961 473.282 C 281.457 471.819, 284.735 469.919, 286.244 469.061 C 288.838 467.585, 288.988 467.106, 288.994 460.250 C 288.997 456.262, 288.663 453.018, 288.250 453.041 C 287.837 453.063, 284.435 454.933, 280.688 457.196 M 323.750 456.563 C 316.955 460.051, 316.421 460.589, 317.765 462.598 C 318.696 463.989, 331.393 472, 332.667 472 C 333.190 472, 334.491 471.322, 335.559 470.494 C 337.375 469.085, 337.324 469.051, 334.750 469.969 C 330.757 471.394, 331.374 470.451, 336.338 467.542 C 341.033 464.791, 342.505 464.374, 341.438 466.100 C 340.675 467.334, 343.152 466.154, 346.368 463.750 C 348.100 462.456, 347.689 462.013, 340.732 457.677 C 336.605 455.105, 332.614 453.022, 331.864 453.049 C 331.114 453.076, 327.462 454.657, 323.750 456.563 M 293.206 461.160 L 293.500 468.321 303.344 474.160 C 308.758 477.372, 313.370 480, 313.594 480 C 314.218 480, 314.075 470.626, 313.399 467.245 C 312.889 464.693, 311.400 463.467, 303.529 459.120 C 298.432 456.304, 293.958 454, 293.587 454 C 293.216 454, 293.045 457.222, 293.206 461.160 M 265.750 465.695 L 262 468.271 262 475.635 C 262 479.686, 262.234 483, 262.520 483 C 262.806 483, 264.831 481.869, 267.020 480.487 L 271 477.975 271 470.487 C 271 466.369, 270.663 463.027, 270.250 463.060 C 269.837 463.093, 267.813 464.279, 265.750 465.695 M 230.208 475.065 L 230.500 483.326 237.750 487.203 L 245 491.081 244.983 483.290 L 244.965 475.500 238.313 471.500 C 234.654 469.300, 231.268 467.344, 230.788 467.153 C 230.308 466.962, 230.047 470.522, 230.208 475.065 M 341.750 471.092 L 336 475.082 336.014 480.291 C 336.021 483.156, 336.299 486.514, 336.631 487.753 L 337.235 490.006 343.117 486.772 L 349 483.538 349 475.269 C 349 470.721, 348.663 467.023, 348.250 467.051 C 347.837 467.079, 344.913 468.897, 341.750 471.092 M 318 475.759 L 318 483.579 325 487.360 L 332 491.141 332 483.070 C 332 476.610, 331.705 475, 330.519 475 C 329.705 475, 326.555 473.411, 323.519 471.469 L 318 467.939 318 475.759 M 253.250 473.339 C 249.002 475.497, 249 475.500, 249.100 480.999 C 249.155 484.025, 249.492 487.476, 249.850 488.668 L 250.500 490.837 254.750 488.317 L 259 485.797 259 478.398 C 259 474.329, 258.663 471.040, 258.250 471.090 C 257.837 471.139, 255.588 472.151, 253.250 473.339 M 339.534 476.749 C 340.052 479.441, 339.888 479.894, 338.579 479.392 C 336.171 478.468, 336.616 481.724, 339.078 483.042 C 340.433 483.767, 340.936 484.724, 340.525 485.796 C 340.178 486.700, 340.226 487.107, 340.632 486.701 C 341.038 486.295, 341.896 484.433, 342.539 482.564 C 343.590 479.508, 343.466 478.881, 341.309 476.333 L 338.910 473.500 339.534 476.749" stroke="none" fill="green" fill-rule="evenodd"/>
</svg>
